<?xml version="1.0" encoding="UTF-8" standalone="no"?>
<!-- Created with Inkscape (http://www.inkscape.org/) -->

<svg
   version="1.1"
   id="svg1"
   width="1024"
   height="1024"
   viewBox="0 0 1024 1024"
   xmlns="http://www.w3.org/2000/svg"
   xmlns:svg="http://www.w3.org/2000/svg">
  <defs
     id="defs1" />
  <path
     d="m 259.08144,723.03897 h 62.43632 l 33.95659,-95.29754 h 139.66019 l 33.9566,95.29754 h 69.55625 L 465.01176,347.32568 H 396.00319 Z M 423.93523,427.28799 h 1.64306 l 52.57795,150.06624 H 371.35728 Z m 230.02832,295.75098 h 67.91319 V 347.32568 h -67.91319 z"
     id="text2"
     style="font-weight:bold;font-size:547.687px;font-family:'.Apple SD Gothic NeoI';-inkscape-font-specification:'.Apple SD Gothic NeoI, Bold';font-variant-position:super;text-align:center;text-anchor:middle;fill:#ff6600;stroke-width:6.73898;stroke-miterlimit:5"
     aria-label="AI"
     transform="matrix(1.1064014,0,0,1.1064014,-73.889384,-42.191545)" />
  <path
     id="rect3"
     style="fill:#ff6600;stroke-width:1.04384;stroke-linecap:round;stroke-linejoin:round;stroke-miterlimit:5"
     d="m 846.22975,429.56515 v 320.04214 c 0,72.37102 -58.10864,130.47966 -130.47966,130.47966 H 286.90014 c -72.37103,0 -130.47967,-58.10864 -130.47967,-130.47966 V 320.75735 c 0,-72.37103 58.10864,-130.47967 130.47967,-130.47967 H 606.94229 V 138.08582 H 286.90014 c -100.57761,0 -182.67153,82.09393 -182.67153,182.67153 v 428.84994 c 0,100.57761 82.09392,182.67153 182.67153,182.67153 h 428.84995 c 100.57761,0 182.67153,-82.09392 182.67153,-182.67153 V 429.56515 Z"
     transform="matrix(1.1064014,0,0,1.1064014,-73.889384,-42.191545)" />
  <path
     style="fill:#ff6600;fill-opacity:1;stroke:none;stroke-width:0;stroke-linecap:round;stroke-linejoin:round;stroke-miterlimit:5;stroke-dasharray:none;stroke-opacity:1"
     id="path9"
     d="m 746.36745,68.790878 c 0,18.05398 -52.67388,17.774848 -65.43998,30.540939 -12.76609,12.766093 -12.48695,65.439973 -30.54093,65.439973 -18.05398,0 -17.77485,-52.67388 -30.54094,-65.439973 -12.76609,-12.766091 -65.43998,-12.486959 -65.43998,-30.540939 0,-18.053979 52.67389,-17.774847 65.43998,-30.540939 12.76609,-12.766091 12.48696,-65.439972 30.54094,-65.439972 18.05398,0 17.77484,52.673881 30.54093,65.439972 12.7661,12.766092 65.43998,12.48696 65.43998,30.540939 z"
     transform="matrix(1.1064014,0,0,1.1064014,31.300988,66.208014)" />
  <path
     style="fill:#ff6600;fill-opacity:1;stroke:none;stroke-width:0;stroke-linecap:round;stroke-linejoin:round;stroke-miterlimit:5;stroke-dasharray:none;stroke-opacity:1"
     id="path9-4"
     d="m 746.36745,68.790878 c 0,18.05398 -52.67388,17.774848 -65.43998,30.540939 -12.76609,12.766093 -12.48695,65.439973 -30.54093,65.439973 -18.05398,0 -17.77485,-52.67388 -30.54094,-65.439973 -12.76609,-12.766091 -65.43998,-12.486959 -65.43998,-30.540939 0,-18.053979 52.67389,-17.774847 65.43998,-30.540939 12.76609,-12.766091 12.48696,-65.439972 30.54094,-65.439972 18.05398,0 17.77484,52.673881 30.54093,65.439972 12.7661,12.766092 65.43998,12.48696 65.43998,30.540939 z"
     transform="matrix(0.91416537,0,0,0.91416537,293.09015,233.37147)" />
  <path
     style="fill:#ff6600;fill-opacity:1;stroke:none;stroke-width:0;stroke-linecap:round;stroke-linejoin:round;stroke-miterlimit:5;stroke-dasharray:none;stroke-opacity:1"
     id="path9-5"
     d="m 746.36745,68.790878 c 0,18.05398 -52.67388,17.774848 -65.43998,30.540939 -12.76609,12.766093 -12.48695,65.439973 -30.54093,65.439973 -18.05398,0 -17.77485,-52.67388 -30.54094,-65.439973 -12.76609,-12.766091 -65.43998,-12.486959 -65.43998,-30.540939 0,-18.053979 52.67389,-17.774847 65.43998,-30.540939 12.76609,-12.766091 12.48696,-65.439972 30.54094,-65.439972 18.05398,0 17.77484,52.673881 30.54093,65.439972 12.7661,12.766092 65.43998,12.48696 65.43998,30.540939 z"
     transform="matrix(0.61379659,0,0,0.61379659,539.08493,71.872255)" />
</svg>
