<?xml version="1.0" encoding="UTF-8" standalone="no"?>
<svg
   viewBox="0 0 256 256"
   version="1.1"
   id="svg122"
   width="256"
   height="256"
   xmlns="http://www.w3.org/2000/svg"
   xmlns:svg="http://www.w3.org/2000/svg">
  <defs
     id="defs63" />
  <g
     fill="#fde700"
     transform="matrix(1.0544817,0,0,1.0544705,-121.76264,-79.226011)"
     id="g119">
    <path
       id="path1-8"
       style="display:inline;fill:#fde700;fill-opacity:1;stroke-width:4.4803"
       d="m 188.96983,75.133453 c -0.1936,0 -0.38673,0.03057 -0.57279,0.09257 l -57.97403,19.187178 c -0.47093,0.156482 -0.77734,0.610982 -0.74637,1.106262 l 3.94709,57.973487 -17.77407,18.42691 c -0.23304,0.25507 -0.35614,0.59214 -0.34137,0.93732 -5.8e-4,6.8e-4 -0.037,-0.0231 -0.037,-0.022 0,0.0746 0.0868,0.25157 0.17589,0.43047 0.0229,0.14045 0.0688,0.27582 0.13539,0.40154 l 0.33905,0.40502 c 1.52035,2.39072 5.69522,7.83108 10.62973,13.77968 l 11.27311,13.59337 2.09447,0.346 2.10605,0.34484 6.71619,-2.97163 6.71735,-2.97048 3.04913,10.33013 c 1.67685,5.68224 3.45922,11.08268 3.97371,11.99879 l 0.91416,1.66518 10.61353,3.26092 c 5.83088,1.79401 12.2045,3.30498 14.16719,3.35698 1.95315,0.0521 8.59388,-1.42184 14.76775,-3.27482 l 11.20484,-3.3697 0.91417,-1.65129 c 0.50496,-0.90921 2.2876,-6.30382 3.96445,-11.98606 l 3.04797,-10.33013 6.7162,2.97048 6.7185,2.97163 2.09679,-0.34484 2.10373,-0.346 11.27311,-13.59337 c 4.83348,-5.8268 8.94729,-11.17453 10.5441,-13.63966 l 0.44319,-0.53231 c 0.19043,-0.23643 0.29179,-0.53192 0.28814,-0.83548 5e-5,-0.002 0.005,-0.008 0.005,-0.009 0,-1e-4 -0.005,0.002 -0.005,0.002 0.002,-0.3358 -0.12497,-0.65935 -0.35525,-0.90376 l -17.78681,-18.4408 3.94478,-57.973487 c 0.031,-0.49528 -0.27544,-0.948623 -0.74637,-1.105105 L 189.54379,75.226027 c -0.18606,-0.062 -0.38036,-0.09257 -0.57396,-0.09257 z m -15.9874,69.231677 c 1.04746,0 1.9787,0.36916 2.79339,1.10626 0.83409,0.73711 1.2509,1.61003 1.2509,2.6187 0,1.26083 -1.00866,2.87092 -3.02599,4.83006 -1.10565,0.95048 -2.53111,2.20093 -4.27688,3.75273 l -4.45162,4.13229 8.8743,10.85202 c 0.64012,0.79529 0.96045,1.58127 0.96045,2.35717 0,1.00867 -0.40727,1.89112 -1.22197,2.64762 -0.81469,0.7565 -1.74593,1.13519 -2.79339,1.13519 -1.08626,0 -2.05564,-0.46564 -2.90912,-1.39671 -1.74577,-1.90095 -4.62645,-5.32477 -8.64172,-10.27112 -1.57119,1.57119 -4.00647,3.8601 -7.30403,6.8667 -1.04746,0.87289 -1.84179,1.60052 -2.38492,2.18244 -0.85349,0.89229 -1.81448,1.33886 -2.88134,1.33886 -1.04747,0 -1.97871,-0.37869 -2.7934,-1.1352 -0.7953,-0.7565 -1.19189,-1.63895 -1.19189,-2.64762 0,-1.12505 0.79434,-2.4148 2.38492,-3.86961 1.28024,-1.10565 2.56041,-2.20244 3.84064,-3.2887 1.18325,-1.18324 3.02667,-2.99697 5.52894,-5.44105 -1.08626,-1.513 -2.18186,-3.02546 -3.28751,-4.53846 -1.33842,-1.78456 -2.59953,-3.17194 -3.78278,-4.16121 -1.00866,-0.83409 -1.51357,-1.7749 -1.51357,-2.82236 0,-1.00867 0.37868,-1.90066 1.13518,-2.67655 0.7759,-0.7953 1.69761,-1.19305 2.76447,-1.19305 1.37722,0 3.27784,1.38738 5.70252,4.16121 l 4.65528,5.99303 c 1.66818,-1.39662 3.32703,-2.79237 4.97581,-4.18899 2.05613,-1.78456 3.53041,-3.3077 4.42269,-4.56854 0.83409,-1.18324 1.89041,-1.77511 3.17064,-1.77511 z m 33.2882,0 c 1.28023,0 2.3377,0.59187 3.17179,1.77511 0.89228,1.26084 2.3654,2.78398 4.42153,4.56854 1.64879,1.39662 3.30764,2.79237 4.97582,4.18899 l 4.65528,-5.99303 c 2.42468,-2.77383 4.32645,-4.16121 5.70367,-4.16121 1.06686,0 1.98741,0.39775 2.76331,1.19305 0.7565,0.77589 1.13518,1.66788 1.13518,2.67655 0,1.04746 -0.5049,1.98827 -1.51357,2.82236 -1.18325,0.98927 -2.4432,2.37665 -3.78162,4.16121 -1.10566,1.513 -2.20241,3.02546 -3.28867,4.53846 2.50227,2.44408 4.3457,4.25781 5.52894,5.44105 1.28024,1.08626 2.56041,2.18305 3.84064,3.2887 1.59059,1.45481 2.38607,2.74456 2.38607,3.86961 0,1.00867 -0.39774,1.89112 -1.19303,2.64762 -0.8147,0.75651 -1.74594,1.1352 -2.7934,1.1352 -1.06686,0 -2.0267,-0.44657 -2.88019,-1.33886 -0.54313,-0.58192 -1.33861,-1.30955 -2.38608,-2.18244 -3.29756,-3.0066 -5.73284,-5.29551 -7.30403,-6.8667 -4.01527,4.94635 -6.89479,8.37017 -8.64056,10.27112 -0.85349,0.93107 -1.82402,1.39671 -2.91027,1.39671 -1.04746,0 -1.97871,-0.37869 -2.7934,-1.13519 -0.8147,-0.7565 -1.22197,-1.63895 -1.22197,-2.64762 0,-0.7759 0.32033,-1.56188 0.96045,-2.35717 l 8.8743,-10.85202 -4.45161,-4.13229 c -1.74577,-1.5518 -3.17124,-2.80225 -4.27689,-3.75273 -2.01734,-1.95914 -3.02599,-3.56923 -3.02599,-4.83006 0,-1.00867 0.4168,-1.88159 1.2509,-2.6187 0.81469,-0.7371 1.74594,-1.10626 2.7934,-1.10626 z m -17.30195,34.97572 c 0.25663,-3.5e-4 0.49692,0.12673 0.64107,0.33905 l 9.02589,13.60148 c 0.22312,0.32167 0.16569,0.75956 -0.13307,1.01253 l -3.83948,3.29333 c -0.31909,0.27945 -0.80496,0.24338 -1.07963,-0.0798 l -4.02694,-4.72129 c -0.30355,-0.35811 -0.85593,-0.35811 -1.15948,0 l -4.02694,4.72129 c -0.27564,0.33191 -0.77154,0.3683 -1.09237,0.0798 l -3.82675,-3.29333 c -0.29305,-0.25606 -0.35103,-0.68936 -0.13423,-1.01253 h -0.0139 l 9.02705,-13.60148 c 0.14378,-0.21178 0.38278,-0.33879 0.63876,-0.33905 z"
       transform="matrix(1.6006458,0,0,1.6006458,-65.611864,-45.128592)" />
  </g>
</svg>
