<svg id="Layer_1" xmlns="http://www.w3.org/2000/svg" version="1.1" viewBox="0 0 550 550">
  <defs>
    <style>
      .st0{fill:#2a3439}.st1{fill:#c0392b}.st2{fill:#192023}.st3{fill:#fff}
    </style>
  </defs>
  <circle cx="275" cy="275" r="265.6" fill="#3498db"/>
  <circle class="st3" cx="275" cy="275" r="250.1"/>
  <circle class="st0" cx="275" cy="275" r="173.7"/>
  <path class="st2" d="m45.6 230.8 1.9-8.3L54 224l-1 4.4 9.5 2.2 1-4.4 6.5 1.5-1.9 8.3-5.3 3.2-14-3.3-3.2-5.2Zm11.6-20.1-2.7 11.8L48 221l2.4-10.2h6.9Zm8.7 5.7 5.3-3.3 14 3.3 3.3 5.3-1.9 8.3-6.5-1.5 1-4.4-9.6-2.2-1 4.4-6.5-1.5 1.9-8.3Zm11 25.4 2.7-11.7 6.5 1.5-2.4 10.2h-6.9Zm10.3-37.1 3.4-8.4 6.2 2.5-4.9 12.1-5.7 2.4L53.5 200l3.2-7.8 30.6 12.4Zm-26.6-22.4 3.1-7.7 32.7 13.3 2.4 5.7-1.5 3.7-36.8-14.9Zm7-15.4 4.3-7.2 34 20.4-4.3 7.2-34-20.4Zm11.9-19.8 6-1.5 13.1 7.9 1.5 6-6.7 11.2-5.7-3.4 4.7-7.8-9.2-5.5-4.7 7.8-5.7-3.4 6.7-11.2Zm10-14 2.5-3 30.6 25.3-2.5 3-6.2.6L90 139.3l-.5-6.2Zm18.6-12.1-9.8 11.9-5.2-4.3 8.9-10.7 6.1 3Zm10.5 13.2-7.7 9.3-5.2-4.3 7.7-9.3 5.2 4.3Zm-.1 15.5 10.6-12.8 4.2 5.5-9.6 11.6-5.2-4.3Zm-9.5-39.3 6.2-5.6 26.5 29.6-6.2 5.6-26.5-29.6Zm32.4 3.2 11 3.3 3.9 4.4-4.5 4-16.6-6.1-2.7 2.5-4.5-5 6.8-6.1-7.1-8-6.8 6.1-4.5-5 9.7-8.7 6.1.3 10.2 11.4-.3 6.2-.8.7Zm12.3-38.2 3.4-1.9 19.4 34.6-3.4 1.9-6-1.7-15.1-27 1.7-5.9Zm21.6-4.5-13.5 7.6-3.3-5.8 12.1-6.8 4.6 5.1Zm5.1 16.1-10.5 5.9-3.3-5.8 10.5-5.9 3.3 5.8Zm-5.7 14.4 14.5-8.1 1.9 6.6-13.1 7.3-3.3-5.8Zm10.7-42.1 2.4-.9 14 37.1-7.8 3L182.1 67l3.3-7.7Zm14.4-5.5 7.5 3.6 11.9 31.5-7.8 3-4.5-11.9-8 3-2.4-6.2 8-3-4.8-12.7-8 3-2.4-6.2 10.4-3.9Zm13.6-4.4 8.2-1.7 8.1 38.9-8.2 1.7-8.1-38.9Zm26.5 19 7.8 8.4 1.2 5.7-5.9 1.2-11.3-13.6-3.6.8-1.4-6.5 8.9-1.9-2.2-10.5-8.9 1.9-1.4-6.5 12.8-2.7 5.1 3.4 3.1 15-3.4 5.2-1 .2Zm8.8-25.6 14.7-1 2.5 39.7-8.3.5-2.1-32.9-7.9.5 1.1-6.8Zm16.3-1.1 7.9-.5.4 6.7-7.9.5-.4-6.7Zm15.5-.5 8.3.7-3.3 39.5-8.3-.7 3.3-39.5Zm20 1.7 8.3.7-3.3 39.5-8.3-.7 1.4-16.9-9.8-.8.5-5.8 9.8.8 1.4-16.9Zm32.7 5.6 7.9 2.6-12.2 37.8-7.9-2.6 12.2-37.8Zm19.2 6.1 7.9 2.6L348.1 95l-7.9-2.6 5.2-16.1-9.4-3 1.8-5.6 9.4 3 5.2-16.1Zm19.8 8 3.5 1.8-17.8 35.5-3.5-1.8-2-5.9 13.9-27.6 5.9-1.9Zm-9.8 32 14.8 7.5-4.4 5.3-13.4-6.8 3-6Zm15.1-3.4-10.7-5.4 3-6 10.7 5.4-3 6ZM388 78l-13.8-7 3-6 12.4 6.3L388 78Zm10.2-1.6 6.9 4.8-22.6 32.6-6.9-4.8 22.6-32.6Zm-10.5 32.9 11.4 7.9-5.1 4.6-10.1-7 3.8-5.5Zm35.6-14.9 6.2 5.6-26.7 29.4-6.2-5.6 26.7-29.4Zm-14.7 31.2 10.2 9.3-5.6 3.9-9.1-8.2 4.5-4.9Zm37.6-9.9 5.3 6.4-30.6 25.3-5.3-6.4 30.6-25.3Zm14.7 17.8-.5 6.2-23.8 19.7-6.2-.6-8.3-10 5.1-4.3 5.8 7 20.3-16.8-5.8-7 5.1-4.3 8.3 10Zm10.7 15.4 1.3 2.2-34.1 20.4-4.3-7.2 28.9-17.3 8.1 1.9Zm7.9 13.2-2.2 8-28.9 17.3-4.3-7.2 10.9-6.5-4.4-7.3 5.7-3.4 4.4 7.3 11.7-7-4.4-7.3 5.7-3.4 5.7 9.6Zm6.7 12.6 3.1 7.7-36.8 14.9-3.1-7.7 36.8-14.9Zm8.7 21.3-2.4 5.7-28.7 11.6-5.7-2.4-4.9-12.1 6.2-2.5 3.4 8.4 24.4-9.9-3.4-8.4 6.2-2.5 4.9 12.1Zm-27.7 20.7 2.7 11.7-6.5 1.5-2.4-10.2 6.1-3Zm21.2 17.8-3.3 5.3-14 3.3-5.3-3.3-1.9-8.3 6.5-1.5 1 4.4 9.6-2.2-1-4.4 6.5-1.5 1.9 8.3Zm11.7-21.9 1.9 8.3-6.5 1.5-1-4.4-9.5 2.2 1 4.4-6.5 1.5-1.9-8.3 3.3-5.2 14-3.3 5.2 3.2Zm-1.4 23.2L496 224l6.5-1.5 2.4 10.2-6.1 3Z"/>
  <path class="st1" d="m119 420 2.9 3-4.4 4.3-5.5-5.6V416c.1 0 5.2-5 5.2-5l5.4 5.5-3.6 3.5Zm20.3-.9v5.7l-9.6 9.3H124l-5.5-5.7 4.4-4.3 2.9 3 6.5-6.3-2.9-3 4.4-4.3 5.5 5.6Zm-1.1-22.9 5.5 5.6-4.4 4.3-2.9-3-6.5 6.3 2.9 3-4.4 4.3-5.5-5.6v-5.7c.1 0 9.6-9.3 9.6-9.3h5.6Zm12 12.3v5.7l-5.1 5-5.4-5.5 3.6-3.5-2.9-3 4.4-4.3 5.5 5.6Zm8.6 7.6 2.9 2.2-21.9 29.2-2.9-2.2-.8-5.7 17.1-22.8 5.6-.8Zm-3.1 26.8 6.2 4.6-5.5 7.3-5.7.8-9.6-7.2 3.7-4.9 6.7 5 4.2-5.7Zm16.9-16.5.8 5.6-5.5 7.3-6.2-4.6 4.2-5.6-6.7-5 3.7-4.9 9.6 7.2Zm6.9 4.3 6.6 3.9-18.5 31.5-6.6-3.9 18.5-31.5Zm13.8 7.8 3.3 1.5-14.9 33.3-3.3-1.5-2-5.3 11.6-26 5.3-2Zm-7.7 29.8 13.9 6.2-3.8 5-12.6-5.7 2.5-5.6Zm13.8-3.7-10.1-4.5 2.5-5.6 10.1 4.5-2.5 5.6Zm9.1-12.6-13-5.8 2.5-5.6 11.7 5.2-1.2 6.2Zm13.4-2.2-9.6 35.2-7.4-2 8.6-31.4 5-2.8 3.5 1Zm13.1 3.6 2.8 4.9-8.6 31.4-7.4-2 8-29.3-8.1-2.2 1.6-5.9 11.6 3.2Zm11.2 2.1 3.6.4-4 36.3-3.6-.4-3.6-4.5 3.1-28.3 4.5-3.5Zm10.9 24.7 7.7.8-1 9.1-4.5 3.6-12-1.3.7-6.1 8.3.9.8-7Zm6.2-22.8 3.6 4.4-1 9.1-7.7-.8.8-7-8.3-.9.7-6.1 12 1.3Zm11.5.3h3.6l1.5 36.3-3.6.2-4.2-3.9-1.2-28.4 3.9-4.2Zm19.7 5.4-14.2.6-.3-6.1 12.8-.5 1.7 6.1Zm-2.6 15.3-11.1.5-.3-6.1 11.1-.5.3 6.1Zm-10.6 9.5 15.2-.6-1.2 6.2-13.8.6-.3-6.1Zm31-33.8 13-3.6 9.5 35.3-7.4 2-7.9-29.3-7 1.9-.2-6.3Zm14.6-4 7-1.9 1.6 5.9-7 1.9-1.6-5.9Zm13.4-4.4 3.3-1.4 14.5 33.5-3.3 1.4-5.3-2.1-11.3-26.1 2.1-5.3Zm20.2-2-13.1 5.7-2.4-5.6 11.7-5.1 3.8 5.1Zm3.2 15.1-10.2 4.4-2.4-5.6 10.2-4.4 2.4 5.6Zm-6.6 12.8 14-6.1 1.1 6.2-12.7 5.5-2.4-5.6Zm8.9-38.1 2-1.3 19.4 30.9-6.5 4.1-16.5-26.2 1.6-7.5Zm12-7.5 7.4 1.9 16.5 26.2-6.5 4.1-6.2-9.9-6.6 4.2-3.3-5.2 6.6-4.2-6.6-10.6-6.6 4.2-3.3-5.2 8.7-5.4Zm12.9-9.3 25.1 26.6-5.6 5.3-22.3-23.7.2-5.7 2.6-2.5Zm9.1-8.6h5.7c0 .1 22.3 23.8 22.3 23.8l-5.6 5.3-20.8-22.1-5.4 5.1-4.2-4.5 8-7.5Zm12-11.4h5.7c0 .1 22.3 23.8 22.3 23.8l-5.6 5.3-20.8-22.1-5.3 5-4.2-4.5 8-7.5Z"/>
  <path class="st0" d="M116.6 438.3c0-.2-.1-.5-.3-.7l-1-1c-.5-.5-.9-.5-1.5-.2l-4.5 2.7c-.4.2-.5.5-.5.7 0 .3 0 .6.4.9l2.2 2.1 4.9-3.8c.2-.2.3-.4.4-.7Zm-4.3 4.9c0 .3 0 .6.4.9l2.2 2.1 4.9-3.8c.2-.2.3-.4.4-.7 0-.2-.1-.5-.3-.7l-1-1c-.3-.3-.8-.6-1.5-.2l-4.5 2.7c-.4.2-.5.5-.5.7Zm15.8 15 1.9-2.3c.9-1.1 1-1.6 1-2.8v-1c-.2-1.2-.7-1.8-1.6-2.5l-5.8-4.9c-.3-.3-.6-.4-1-.4-.3 0-.6.2-.9.5l-10.2 12 3 2.5 3.4-4 2.8 2.4-1.8 5.3 3.2 2.7 2-6.1h1.4c1.2-.2 1.7-.4 2.6-1.5Zm-1.1-4.7-1.8 2.1h-1.5l-3.5-3 3.1-3.7 3.5 3c.2.2.2.2.2.4v1.2Zm11 15.7 2.1-2.9-5.3-3.9 1.9-2.6 6.4 4.7 2.1-2.9-8.5-6.3c-.7-.5-1.3-.4-1.8.3l-8.6 11.7c-.5.7-.4 1.3.3 1.8l8.7 6.4 2.1-2.9-6.6-4.8 1.9-2.6 5.3 3.9Zm15.4 7.6c-.3-1-1-1.7-2.2-2.7l-3.2-2.7c-.6-.5-.6-.7-.3-1.1l.5-.9.2-.1 1.3-.3h.3l2.2 1.4c.3.2.4.3.6.6l1.6 2.4 3-1.6-1.2-2.4c-.5-1-.9-1.3-1.9-2l-2.7-1.7c-.8-.5-1.6-.8-2.8-.6l-1.4.3c-1.2.3-1.7.6-2.5 1.8l-.5.8c-.8 1.2-1 2.2-.9 3.1.1 1 .7 1.9 2 3l3.4 2.8c.6.5.6.6.3 1l-.5.7-.2.1-1.3.3h-.3l-2.7-1.7c-.3-.2-.4-.3-.6-.6l-1.6-2.4-3 1.6 1.2 2.4c.5 1 .9 1.3 1.9 2l3.2 2c.6.4 1.2.7 2 .7h.8l1.4-.3c1.2-.3 1.7-.6 2.5-1.8l.5-.8c.8-1.3 1.1-2.3.8-3.3Zm9.6.1 7 3.8 1.7-3.1-9.3-5.1c-.7-.4-1.4-.2-1.8.5l-6.9 12.7c-.2.4-.3.7-.2 1 0 .3.3.6.7.8l9.5 5.2 1.7-3.1-7.2-3.9 1.6-2.9 5.8 3.2 1.7-3.1-5.8-3.2 1.5-2.8Zm20.6 7.9c-.2-1.5-.5-2.1-2-2.7l-1.3-.6c-1.5-.7-2.1-.5-3.4.3l-4 2.7c-1.1.7-1.6 1.5-2.2 2.7l-3.4 7.4 3.5 1.6 1.7-3.8 5.8 2.6-1.7 3.8 3.5 1.6 3.4-7.4c.6-1.2.8-2.1.6-3.4l-.6-4.8Zm-3.5 6.6-.2.4-5.8-2.6.2-.4c.3-.6.5-.9 1-1.2l3.8-2.6.8.4.5 4.5c0 .6 0 .9-.3 1.5Zm20.9-.4c-.5-1.1-1.1-1.5-2.3-1.9l-7.1-2.6c-.4-.1-.7-.2-1 0-.3.1-.5.4-.6.8l-5.4 14.8 3.7 1.3 1.8-4.9 3.5 1.3.2 5.6 3.9 1.4-.3-6.4c.1 0 .2 0 .3-.1l.9-.4c1.1-.5 1.5-.9 2-2.2l1-2.8c.5-1.3.4-1.9 0-3l-.4-.9Zm-4.3 5.5-.9.4h-.3l-4.3-1.6 1.7-4.5 4.3 1.6c.2 0 .3.1.3.3l.3.7v.4l-1 2.6-.1.1Zm11.5.8.1-.2 1.2-.6h.3l2.8.8c.4.1.5.2.8.4l2.2 1.9 2.5-2.4-1.9-2c-.7-.7-1.2-1-2.4-1.3l-3.3-1c-.9-.3-1.8-.3-2.8.3l-1.2.7c-1.1.6-1.5 1-1.9 2.4l-2.1 7.3c-.4 1.4-.3 2 .3 3.1l.7 1.2a3 3 0 0 0 2.3 1.7l3.5 1c.7.2 1.1.3 1.6.3s.7 0 1.1-.2l2.7-.6-.8-3.4-2.9.4h-.9l-3-.9c-.2 0-.2-.1-.3-.2l-.6-1.2v-.2l2.1-7.3Zm21.6 7.4-6.1-1.3 1.3-6.6-3.8-.8-3.5 16.7 3.8.8 1.4-6.6 6.2 1.3-1.4 6.6 3.8.8 3.5-16.7-3.8-.8-1.4 6.6zm20.4 2.9-.6-.8v-1.6c.1 0 .1 0 .2-.2l.8-.6h.3l2.9.3c.4 0 .5 0 .7.2l2.5 1.2 1.8-2.8-2-1.4c-.9-.6-1.4-.8-2.7-.9l-3-.3c-1.1-.1-1.8 0-2.7.7l-1 .8c-.9.7-1.2 1.2-1.3 2.6v1c-.2 1.2 0 1.8.8 2.8l-.6.5c-1 .8-1.2 1.2-1.3 2.6v1.3c-.3 1.4 0 1.9.7 2.8l.8 1c.7.9 1.4 1.1 2.5 1.2l4 .4h.6c.5 0 1 0 1.5-.2l1.4-.3c1-.2 1.4-.8 1.5-1.7l.4-4.4 1.6.2.3-3.4-9.6-.9c-.2 0-.3 0-.3-.1Zm4.2 4-.3 3.1-1 .2h-.4l-3.3-.3c-.2 0-.3 0-.3-.1l-.6-.8v-1.8c.2 0 .2 0 .3-.2l.8-.6h.3l4.6.4Zm30-7.5-1-1c-.9-.8-1.7-1-2.7-1h-8c-.4.1-.7.3-1 .5-.2.2-.3.5-.3 1l.2 14.5c0 .4.1.7.4 1 .2.2.5.3.9.3h8c1-.1 1.8-.3 2.7-1.2l1-1c.8-.9 1.1-1.4 1.1-2.9V507c-.1-1.5-.5-2-1.3-2.9Zm-2.6 10.2v.2l-1.1 1.1h-5.1l-.2-9.9h5.1l1.1 1.1v7.4Zm11.7.8-.3-3.3 6.6-.6-.3-3.5-6.6.6-.3-3.2 8-.7-.3-3.5-10.6.9c-.9 0-1.3.6-1.2 1.4l1.2 14.5c0 .4.2.7.4.9.2.2.5.3.8.3h.2l10.7-.9-.3-3.5-8.1.7Zm24.5-5.2c-.2-1.5-.7-2.5-1.6-3-.8-.6-1.8-.6-3.4-.6h-4.1c-.8.1-.9 0-.9-.6l-.2-1v-.2l.8-1.1s0-.1.3-.1l2.5-.4h.9l2.8.7 1.2-3.2-2.5-1c-1-.4-1.5-.4-2.7-.2l-3.2.5c-1 .1-1.8.4-2.5 1.4l-.8 1.1c-.7 1-.9 1.6-.7 3v.9c.4 1.4.8 2.3 1.5 2.9.8.7 1.8.9 3.5.9h4.4c.8-.1.8 0 .9.5v.9c.1 0 .1.1 0 .2l-.8 1.1-.3.1-3.1.5h-.9l-2.8-.7-1.2 3.2 2.5 1c.6.2 1 .3 1.6.3s.7 0 1.2-.1l3.8-.6c1-.1 1.8-.4 2.5-1.4l.8-1.1c.7-1 .9-1.6.7-3v-1Zm13.4-14.6-13.5 3 .8 3.5 4.8-1.1 3 13.2 3.8-.8-3-13.2 4.9-1.1-.8-3.5zm16.4 6.6.5-.9c.6-1 .7-1.6.3-2.9l-.9-2.9c-.4-1.4-.8-1.8-1.8-2.3l-.9-.5c-1-.6-1.8-.5-2.9-.1l-7.3 2.2c-.8.2-1.1.8-.9 1.6l4.5 15.2 3.8-1.1-1.5-5 3.6-1.1 3.5 4.4 4-1.2-4.1-5s.1-.2.2-.3Zm-4.7-6.1.7.4c.2.1.2.1.3.3l.8 2.7v.2l-.5.9s0 .1-.3.2l-4.4 1.3-1.4-4.6 4.4-1.3h.5Zm19.6-11-3.7 1.4 4.7 12.3-.5.6-.2.1-3.8 1.5h-.3l-1.2-.5c-.1 0-.1 0-.2-.2l-4.4-11.5-3.7 1.4 4.4 11.6c.5 1.4 1 1.8 2.1 2.3l1.3.6c.5.2 1 .3 1.4.3s1-.1 1.5-.3l4.6-1.8c1-.4 1.3-.6 1.7-1.1l.8-1c.6-.8.8-1.3.4-2.2l-5.1-13.4Zm16.9 7c-.2.2-.3.3-.7.5l-2.9 1.3c-.2.1-.3 0-.3 0l-1.2-.5c-.1 0-.1 0-.2-.1l-3.2-6.9v-.2l.4-1.2s0-.1.3-.2l2.7-1.2c.4-.2.5-.2.8-.2h2.9l.3-3.5-2.8-.2c-1 0-1.6 0-2.7.6l-3.1 1.5c-.9.4-1.6.9-2 2.1l-.5 1.3c-.4 1.1-.4 1.8.2 3.1l3.2 6.9c.6 1.3 1.1 1.7 2.3 2.1l1.3.5c.4.2.8.2 1.2.2.6 0 1.1-.2 1.7-.4l3.3-1.6a4 4 0 0 0 2.1-1.7l1.6-2.3-2.8-2-1.9 2.2Zm13-18.1-1.7-3.1-12 6.7 1.7 3.1 4.3-2.4 6.6 11.9 3.4-1.9-6.6-11.9 4.3-2.4zm12.7 4.2-5.7-8.9 2-1.2-1.8-2.8-7.2 4.6 1.8 2.7 1.9-1.2 5.7 8.9-2 1.3 1.7 2.7 7.3-4.5-1.8-2.8-1.9 1.2zm11.4-19.1c-.9-1.2-1.4-1.5-2.6-1.7l-1.4-.2c-1.2-.2-2 .2-2.8.7l-4 2.9c-.8.6-1.4 1.2-1.6 2.4l-.2 1.4c-.2 1.2-.1 1.8.7 3l4.5 6.2c.9 1.2 1.4 1.5 2.6 1.6l1.4.2h.6c.9 0 1.5-.3 2.1-.8l4-2.9c.8-.6 1.4-1.2 1.6-2.4l.2-1.4c.2-1.2.1-1.8-.7-3l-4.5-6.2Zm1.3 8.7-.2 1.3s0 .1-.2.3l-3.3 2.4c-.2.1-.2.1-.3.1l-1.3-.2c-.1 0-.1 0-.2-.1l-4.4-6.1v-.2l.2-1.3s0-.1.2-.3l3.3-2.4c.1-.1.2-.1.3-.1l1.3.2c.1 0 .1 0 .2.1l4.4 6.1v.2Zm9.4-23.8-2.8 2.4 6.8 8-11.8-2.9c-.6-.1-.9-.1-1.3.3l-1.3 1.1c-.4.4-.5.9-.1 1.3l10.5 12.4 2.8-2.4-6.7-8 11.8 2.9c.4 0 .8.1 1.3-.2l1.3-1.1c.4-.4.5-.9.1-1.3l-10.5-12.4Zm7.2 2.7c.2 0 .4-.1.7-.3l1-1c.3-.3.7-.8.2-1.5l-2.5-4.5c-.2-.4-.5-.5-.7-.5-.3 0-.6 0-.9.3l-2.2 2.1 3.7 5c.2.2.4.4.6.4Zm5.4-6.1-2.5-4.6c-.2-.4-.5-.5-.7-.5-.3 0-.6 0-.9.3l-2.2 2.1 3.7 5c.2.2.4.4.6.4.2 0 .4-.1.7-.3l1-1c.5-.5.5-.9.3-1.5Z"/>
  <path class="st3" d="M183.5 267.2c2.6-.2 5.3.1 7.8.9l31.6 10.5c3.8 1.3 6.5 4.7 6.9 8.6l6.7 23.2c.2 0 .3-.1.5-.2l31.6-10.5c4.1-1.3 8.5-1.3 12.6 0l31.6 10.5c.2 0 .3.1.5.2l6.6-23c.3-4 3-7.6 6.9-8.9l31.6-10.5c2.5-.8 5.2-1.1 7.9-.9l11.4-13.7c.6-.7.6-1.8 0-2.5l-25-25.9 5.6-81.5c0-.7-.4-1.3-1-1.6l-81.5-27c-.5-.2-1.1-.2-1.6 0l-81.5 27c-.7.2-1.1.9-1 1.6l5.6 81.5-25 25.9c-.7.7-.7 1.7 0 2.5l11.4 13.7ZM302 218c4.5 2.7 10.6 5.7 18.2 8 8.6 2.6 16.2 3.3 21.8 3.3-.1 2.2-.9 9.2-6.3 14.5-6.5 6.3-16.9 7.8-26.3 3.8 1.3 1.7 3.4 3.8 6.4 5.5 6.9 4.1 13.8 3.4 16.4 3-9.4 4.2-20.2 2.9-27.2-3.3-9.2-8.1-11-23.3-2.8-34.9Zm-40.6 63 12.7-19.1c.4-.6 1.4-.6 1.8 0l12.7 19.1c.3.5.2 1.1-.2 1.4L283 287c-.5.4-1.1.3-1.5-.1l-5.7-6.6c-.4-.5-1.2-.5-1.6 0l-5.7 6.6a1 1 0 0 1-1.5.1l-5.4-4.6c-.4-.4-.5-1-.2-1.4Zm-31.6-55c7.6-2.3 13.7-5.4 18.2-8 8.2 11.6 6.4 26.8-2.8 34.9-7.1 6.2-17.8 7.5-27.2 3.3 2.5.4 9.5 1 16.4-3 3-1.8 5-3.9 6.4-5.5-9.4 4.1-19.9 2.5-26.3-3.8-5.5-5.4-6.2-12.3-6.3-14.5 5.6 0 13.2-.8 21.8-3.3Z"/>
  <path class="st3" d="m411.1 334.5-10.3-10.7 2.4-35.4c.1-1.6-.9-3.1-2.5-3.7l-31.6-10.5c-2.8-.9-5.7-.9-8.5 0L329 284.7c-1.6.5-2.6 2-2.5 3.7l2.4 35.4-10.3 10.7c-1 1.1-1.1 2.7-.1 3.8l12.9 15.4c.9 1.1 2.4 1.4 3.7.9l7.8-3.3c.4-.2.8 0 1 .5l1.2 4.1a16.82 16.82 0 0 1 8.3-2.3c2 0 3.8.3 5.6.7 1.5.3 2.8.5 4.2.6h1.1c2.1 0 4-.3 5.9-.6 1.3-.2 2.6-.4 4.1-.6.6 0 1.3-.1 1.9-.1 3.1 0 6 .8 8.5 2.3l1.2-4c.1-.4.6-.6 1-.5l7.8 3.3c1.3.5 2.8.2 3.7-.9l12.9-15.4c.9-1.1.9-2.8-.1-3.8Zm-58-1.4c-2.6.3-2.6-1.8-3.6-3.4-2-3.3-6.8-3.3-8.9 0-.7 1-.8 2.6-2.1 3.1-.9.4-2.4.3-3.1-.4-2-1.8.2-5.7 1.7-7.3a10.8 10.8 0 0 1 17 1.5c1.4 2.2 2.6 6-1 6.5Zm18 18.7h-12.4c-.8 0-1.3-.9-.8-1.6l6.2-7.8c.4-.5 1.1-.5 1.5 0l6.2 7.8c.5.6 0 1.6-.8 1.6Zm23.2-19.4c-.7.7-2.2.8-3.1.4-1.3-.5-1.4-2.1-2.1-3.1a5.28 5.28 0 0 0-8.9 0c-1.1 1.8-.9 3.8-4 3.3-3.3-.5-1.8-4.5-.6-6.4 3.8-5.9 12.3-6.6 17-1.5 1.5 1.6 3.7 5.5 1.7 7.3Z"/>
  <g id="_x33_sZlZK.tif">
    <path class="st3" d="M339 369.1c.6-6.3 6-11.8 12.2-12.8 4.2-.7 7.8.9 11.9 1.1 4.3.2 7.4-.8 11.4-1.2 14.4-1.5 22 16.7 10.9 25.9-.9.7-1.9 1.3-2.9 1.8-.2 0 0-1 0-1.2.3-6.6-3.4-13-9.2-16.2-.8-.4-1.9-.8-2.6-1.2s-.5-.6-.8-.8c-2.9-2.2-6.7-2.6-9.7-.3s-.9.9-1.3 1.1c-.6.4-1.8.8-2.6 1.2-6.2 3.4-9.8 10.3-9.1 17.3-4-1.8-7-5.6-7.9-9.9 0-.4-.3-1.2-.3-1.6V369Z"/>
    <path class="st3" d="M365.4 396.8h-1c-15.4-.6-19.7-21.7-5.6-28.1.5-.2 1.5-.5 1.9-.7s.6-.8 1-1c1.9-1.6 4.6-1.6 6.5 0s.7.9 1 1c.4.3 1.4.5 1.9.7 14.1 6.5 9.8 27.5-5.6 28.1Zm-4.1-22.5c-6.7 3.1-6.8 12.6 0 15.7 6.7 3 13.8-3.2 11.8-10.3-.7-2.3-2.5-4.3-4.6-5.4-.4.2-.7.6-1.1.8a5 5 0 0 1-6.1-.8Z"/>
    <path class="st3" d="M361.1 377.9c.2 0 1.6.5 2 .6 1.3.3 2.7.2 4-.1s1.4-.6 1.6-.5c.8.4 1.7 2.6 1.8 3.5s0 2.5-.5 3-.1.1-.2 0l-3.4-.4c-2.3 0-4.5 0-6.7.4a5.55 5.55 0 0 1 1.4-6.6Z"/>
  </g>
  <path class="st3" d="M231.3 334.5 221 323.8l2.4-35.4c.1-1.6-.9-3.1-2.5-3.7l-31.6-10.5c-2.8-.9-5.7-.9-8.5 0l-31.6 10.5c-1.6.5-2.6 2-2.5 3.7l2.4 35.4-10.3 10.7c-1 1.1-1.1 2.7-.1 3.8l12.9 15.4c.9 1.1 2.4 1.4 3.7.9l7.8-3.3c.4-.2.8 0 1 .5l1.2 4.1a16.82 16.82 0 0 1 8.3-2.3c2 0 3.8.3 5.6.7 1.5.3 2.8.5 4.2.6h1.1c2.1 0 4-.3 5.9-.6 1.3-.2 2.6-.4 4.1-.6.6 0 1.3-.1 1.9-.1 3.1 0 6 .8 8.5 2.3l1.2-4c.1-.4.6-.6 1-.5l7.8 3.3c1.3.5 2.8.2 3.7-.9l12.9-15.4c.9-1.1.9-2.8-.1-3.8Zm-58-1.4c-2.6.3-2.6-1.8-3.6-3.4-2-3.3-6.8-3.3-8.9 0-.7 1-.8 2.6-2.1 3.1-.9.4-2.4.3-3.1-.4-2-1.8.2-5.7 1.7-7.3a10.8 10.8 0 0 1 17 1.5c1.4 2.2 2.6 6-1 6.5Zm18 18.7h-12.4c-.8 0-1.3-.9-.8-1.6l6.2-7.8c.4-.5 1.1-.5 1.5 0l6.2 7.8c.5.6 0 1.6-.8 1.6Zm23.2-19.4c-.7.7-2.2.8-3.1.4-1.3-.5-1.4-2.1-2.1-3.1a5.28 5.28 0 0 0-8.9 0c-1.1 1.8-.9 3.8-4 3.3-3.3-.5-1.8-4.5-.6-6.4 3.8-5.9 12.3-6.6 17-1.5 1.5 1.6 3.7 5.5 1.7 7.3Z"/>
  <g id="_x33_sZlZK.tif1" data-name="_x33_sZlZK.tif">
    <path class="st3" d="M159.2 369.1c.6-6.3 6-11.8 12.2-12.8 4.2-.7 7.8.9 11.9 1.1 4.3.2 7.4-.8 11.4-1.2 14.4-1.5 22 16.7 10.9 25.9-.9.7-1.9 1.3-2.9 1.8-.2 0 0-1 0-1.2.3-6.6-3.4-13-9.2-16.2-.8-.4-1.9-.8-2.6-1.2s-.5-.6-.8-.8c-2.9-2.2-6.7-2.6-9.7-.3s-.9.9-1.3 1.1c-.6.4-1.8.8-2.6 1.2-6.2 3.4-9.8 10.3-9.1 17.3-4-1.8-7-5.6-7.9-9.9 0-.4-.3-1.2-.3-1.6V369Z"/>
    <path class="st3" d="M185.6 396.8h-1c-15.4-.6-19.7-21.7-5.6-28.1.5-.2 1.5-.5 1.9-.7s.6-.8 1-1c1.9-1.6 4.6-1.6 6.5 0s.7.9 1 1c.4.3 1.4.5 1.9.7 14.1 6.5 9.8 27.5-5.6 28.1Zm-4.1-22.5c-6.7 3.1-6.8 12.6 0 15.7 6.7 3 13.8-3.2 11.8-10.3-.7-2.3-2.5-4.3-4.6-5.4-.4.2-.7.6-1.1.8a5 5 0 0 1-6.1-.8Z"/>
    <path class="st3" d="M181.3 377.9c.2 0 1.6.5 2 .6 1.3.3 2.7.2 4-.1s1.4-.6 1.6-.5c.8.4 1.7 2.6 1.8 3.5s0 2.5-.5 3-.1.1-.2 0l-3.4-.4c-2.3 0-4.5 0-6.7.4a5.55 5.55 0 0 1 1.4-6.6Z"/>
  </g>
  <path class="st3" d="m321.2 366.1-10.3-10.7 2.4-35.4c.1-1.6-.9-3.1-2.5-3.7l-31.6-10.5c-2.8-.9-5.7-.9-8.5 0l-31.6 10.5c-1.6.5-2.6 2-2.5 3.7l2.4 35.4-10.3 10.7c-1 1.1-1.1 2.7-.1 3.8l12.9 15.4c.9 1.1 2.4 1.4 3.7.9l7.8-3.3c.4-.2.8 0 1 .5l1.2 4.1a16.82 16.82 0 0 1 8.3-2.3c2 0 3.8.3 5.6.7 1.5.3 2.8.5 4.2.6h1.1c2.1 0 4-.3 5.9-.6 1.3-.2 2.6-.4 4.1-.6.6 0 1.3-.1 1.9-.1 3.1 0 6 .8 8.5 2.3l1.2-4c.1-.4.6-.6 1-.5l7.8 3.3c1.3.5 2.8.2 3.7-.9l12.9-15.4c.9-1.1.9-2.8-.1-3.8Zm-58-1.4c-2.6.3-2.6-1.8-3.6-3.4-2-3.3-6.8-3.3-8.9 0-.7 1-.8 2.6-2.1 3.1-.9.4-2.4.3-3.1-.4-2-1.8.2-5.7 1.7-7.3a10.8 10.8 0 0 1 17 1.5c1.4 2.2 2.6 6-1 6.5Zm18 18.7h-12.4c-.8 0-1.3-.9-.8-1.6l6.2-7.8c.4-.5 1.1-.5 1.5 0l6.2 7.8c.5.6 0 1.6-.8 1.6Zm23.3-19.3c-.7.7-2.2.8-3.1.4-1.3-.5-1.4-2.1-2.1-3.1a5.28 5.28 0 0 0-8.9 0c-1.1 1.8-.9 3.8-4 3.3-3.3-.5-1.8-4.5-.6-6.4 3.8-5.9 12.3-6.6 17-1.5 1.5 1.6 3.7 5.5 1.7 7.3Z"/>
  <g id="_x33_sZlZK.tif2" data-name="_x33_sZlZK.tif">
    <path class="st3" d="M249.2 400.8c.6-6.3 6-11.8 12.2-12.8 4.2-.7 7.8.9 11.9 1.1 4.3.2 7.4-.8 11.4-1.2 14.4-1.5 22 16.7 10.9 25.9-.9.7-1.9 1.3-2.9 1.8-.2 0 0-1 0-1.2.3-6.6-3.4-13-9.2-16.2-.8-.4-1.9-.8-2.6-1.2s-.5-.6-.8-.8c-2.9-2.2-6.7-2.6-9.7-.3-.5.3-.9.9-1.3 1.1-.6.4-1.8.8-2.6 1.2-6.2 3.4-9.8 10.3-9.1 17.3-4-1.8-7-5.6-7.9-9.9s-.3-1.2-.3-1.6v-3.3Z"/>
    <path class="st3" d="M275.5 428.5h-1c-15.4-.6-19.7-21.7-5.6-28.1.5-.2 1.5-.5 1.9-.7s.6-.8 1-1a5 5 0 0 1 6.5 0c.3.3.7.9 1 1 .4.3 1.4.5 1.9.7 14.1 6.5 9.8 27.5-5.6 28.1Zm-4.1-22.6c-6.7 3.1-6.8 12.6 0 15.7s13.8-3.2 11.8-10.3-2.5-4.3-4.6-5.4c-.4.2-.7.6-1.1.8a5 5 0 0 1-6.1-.8Z"/>
    <path class="st3" d="M271.3 409.5c.2 0 1.6.5 2 .6 1.3.3 2.7.2 4-.1.4-.1 1.4-.6 1.6-.5.8.4 1.7 2.6 1.8 3.5s0 2.5-.5 3-.1.1-.2 0l-3.4-.4c-2.3 0-4.5 0-6.7.4a5.55 5.55 0 0 1 1.4-6.6Z"/>
  </g>
  <circle class="st3" cx="232.6" cy="235.3" r="3"/>
  <circle class="st3" cx="317.4" cy="235.3" r="3"/>
  <path class="st1" d="M67.6 278c-.1-.2-.2-.5-.2-.8v-12.1h1.4v-5.6c0-.9-.7-1.6-1.6-1.6H56.1c-.9 0-1.6.7-1.6 1.6v5.6h1.4v12.1c0 .3 0 .5-.2.8l-13 24.3c-.3.5-.2 1.1 0 1.6l2.8 4.3c.3.5.8.7 1.3.7h29.5c.5 0 1-.3 1.3-.7l2.8-4.3c.3-.5.3-1.1 0-1.6l-13-24.3Zm5.9 27.2c-.3.5-.8.7-1.3.7h-21c-.5 0-1-.3-1.3-.7l-.5-.7c-.7-1.1 0-2.5 1.3-2.5h7.8c.9 0 1.6-.7 1.6-1.6 0-.9-.7-1.6-1.6-1.6h-7.2c-1.2 0-2-1.3-1.4-2.3l.3-.7c.3-.5.8-.9 1.4-.9h6.9c.9 0 1.6-.7 1.6-1.6 0-.9-.7-1.6-1.6-1.6h-3.6c-1.2 0-2-1.3-1.4-2.3l.3-.7c.3-.5.8-.9 1.4-.9h3.3c.9 0 1.6-.7 1.6-1.6 0-.9-.7-1.6-1.6-1.6-1.2 0-2-1.3-1.4-2.3l.4-.7c.3-.5.8-.9 1.4-.9h5.8c.6 0 1.2.3 1.4.9l9.6 19c.3.5.2 1.1 0 1.6l-2 3.1Z"/>
  <g id="UBg5av.tif">
    <path class="st1" d="M469.2 262.8c.3-.6 1.2-1.7 1.8-1.7h5.5v3.3c0 1.1 1.9 2.9 3.1 2.8 6.4-.3 13.2.5 19.5 0 1.2 0 2.3-.7 2.9-1.8s.5-1 .5-1.1V261h5.5c.6 0 1.7 1.1 1.8 1.7v44.1c0 1.1-.7 1.7-1.6 2.1h-39.1v-46.2Zm14.7 10.1c-.2 0-.5.2-.7.3l-3.8 3.5c-.5-.5-1.2-1.5-2-1.5s-1.4.9-1.1 1.8 2.2 2.3 2.4 2.4c1 .5 1.7-.3 2.3-.9 1.4-1.2 2.7-2.5 4-3.7.6-.8-.2-2-1.1-1.9Zm6.1 2.1c-1.3.3-1.4 2.1 0 2.4h11.5c1.4-.4 1.3-2.2-.2-2.5H490Zm-6.4 9.1c-.2 0-.5.3-.7.4l-3.5 3.2c-.5.2-1.1-1-1.6-1.2-1.1-.5-2.1.5-1.7 1.6s2 2.3 2.4 2.5.8.2 1.2 0 2.6-2.2 3.1-2.7 1.8-1.5 2.1-2c.6-1-.3-2.1-1.4-1.8Zm6.2 2.1c-1.4.8-.9 2.3.7 2.4 3.4.3 7.2-.2 10.6 0 1.6 0 2-1.9.4-2.5h-11.7Zm-6 9c-.4 0-1 .7-1.3.9-1 .9-2 2-3.1 2.9-.7-.6-1.5-2-2.6-1.3s-.7 1-.5 1.6 2.1 2.2 2.3 2.4c.5.3.9.4 1.3 0 1.4-1.5 3.4-2.8 4.8-4.3s.2-2.4-1-2.2Zm5.5 4.2c.2.2.5.4.8.4 3.9 0 7.7.1 11.6 0 1.2-.5 1-2.1-.3-2.4h-11.2c-1 0-1.6 1.4-.9 2.1Z"/>
    <path class="st1" d="M494.1 258.6c.2.2 4.6-.2 5.5.2s.5.4.6.8c.1.9.1 3.4 0 4.3s-.3.7-.7.9H480c-.4 0-.7-.3-.9-.6 0-1.4-.2-3.2 0-4.6s.6-.9 1.2-1c1.5-.2 3.3.1 4.9 0 1.1-4.6 7.9-4.7 9 0Z"/>
  </g>
  <path class="st2" d="m67.3 322.8 3.1 9.6h10l-8.1 5.9 3.1 9.5-8.1-5.9-8.1 5.9 3.1-9.5-8.2-5.9h10.1l3.1-9.6zm19.1 39.8 3.1 9.5h10l-8.1 5.9 3.1 9.5-8.1-5.8-8.1 5.8 3.1-9.5-8.1-5.9h10l3.1-9.5zm396.3-39.8-3.1 9.6h-10l8.1 5.9-3.1 9.5 8.1-5.9 8.1 5.9-3.1-9.5 8.2-5.9h-10.1l-3.1-9.6zm-25.1 39.8-3.1 9.5h-10l8.1 5.9-3.1 9.5 8.1-5.8 8.1 5.8-3.1-9.5 8.1-5.9h-10l-3.1-9.5z"/>
</svg>
