<svg xmlns="http://www.w3.org/2000/svg" viewBox="0 0 400 400" xmlns:v="https://vecta.io/nano"><defs><clipPath id="A"><path d="M0 283.46h283.46V0H0Z" transform="translate(-141.73 -8.29)"/></clipPath><clipPath id="B"><path d="M0 283.46h283.46V0H0Z" transform="translate(-141.73 -49.07)"/></clipPath><clipPath id="C"><path d="M0 283.46h283.46V0H0Z" transform="translate(-141.73 -234.4)"/></clipPath><clipPath id="D"><path d="M0 283.46h283.46V0H0Z" transform="translate(-36.05 -159.46)"/></clipPath><clipPath id="E"><path d="M0 283.46h283.46V0H0Z" transform="translate(-27.37 -191.17)"/></clipPath><clipPath id="F"><path d="M0 283.46h283.46V0H0Z" transform="translate(-37.42 -209.97)"/></clipPath><clipPath id="G"><path d="M0 283.46h283.46V0H0Z" transform="translate(-58.25 -208.57)"/></clipPath><clipPath id="H"><path d="M0 283.46h283.46V0H0Z" transform="translate(-70.46 -227.85)"/></clipPath><clipPath id="I"><path d="M0 283.46h283.46V0H0Z" transform="translate(-88.23 -234.34)"/></clipPath><clipPath id="J"><path d="M0 283.46h283.46V0H0Z" transform="translate(-101.6 -259.73)"/></clipPath><clipPath id="K"><path d="M0 283.46h283.46V0H0Z" transform="translate(-123.02 -251.96)"/></clipPath><clipPath id="L"><path d="M0 283.46h283.46V0H0Z" transform="translate(-136.4 -266.21)"/></clipPath><clipPath id="M"><path d="M0 283.46h283.46V0H0Z" transform="translate(-155.36 -265.57)"/></clipPath><clipPath id="N"><path d="M0 283.46h283.46V0H0Z" transform="translate(-183.01 -259.3)"/></clipPath><clipPath id="O"><path d="M0 283.46h283.46V0H0Z" transform="translate(-202.03 -246.84)"/></clipPath><clipPath id="P"><path d="M0 283.46h283.46V0H0Z" transform="translate(-201.87 -230.16)"/></clipPath><clipPath id="Q"><path d="M0 283.46h283.46V0H0Z" transform="translate(-213 -221.45)"/></clipPath><clipPath id="R"><path d="M0 283.46h283.46V0H0Z" transform="translate(-240.9 -217.23)"/></clipPath><clipPath id="S"><path d="M0 283.46h283.46V0H0Z" transform="translate(-250.82 -201.99)"/></clipPath><clipPath id="T"><path d="M0 283.46h283.46V0H0Z" transform="translate(-259.06 -183.87)"/></clipPath><clipPath id="U"><path d="M0 283.46h283.46V0H0Z" transform="translate(-261.1 -162.66)"/></clipPath><clipPath id="V"><path d="M0 283.46h283.46V0H0Z" transform="translate(-31.54 -113.19)"/></clipPath><clipPath id="W"><path d="M0 283.46h283.46V0H0Z" transform="translate(-37.02 -94.73)"/></clipPath><clipPath id="X"><path d="M0 283.46h283.46V0H0Z" transform="translate(-38.72 -83.04)"/></clipPath><clipPath id="Y"><path d="M0 283.46h283.46V0H0Z" transform="translate(-48.22 -70.57)"/></clipPath><clipPath id="Z"><path d="M0 283.46h283.46V0H0Z" transform="translate(-52.13 -64.13)"/></clipPath><clipPath id="a"><path d="M0 283.46h283.46V0H0Z" transform="translate(-70.06 -62.79)"/></clipPath><clipPath id="b"><path d="M0 283.46h283.46V0H0Z" transform="translate(-73.67 -54.32)"/></clipPath><clipPath id="c"><path d="M0 283.46h283.46V0H0Z" transform="translate(-90.85 -44.35)"/></clipPath><clipPath id="d"><path d="M0 283.46h283.46V0H0Z" transform="translate(-107.18 -40.84)"/></clipPath><clipPath id="e"><path d="M0 283.46h283.46V0H0Z" transform="translate(-122.67 -36.67)"/></clipPath><clipPath id="f"><path d="M0 283.46h283.46V0H0Z" transform="translate(-130.35 -24.25)"/></clipPath><clipPath id="g"><path d="M0 283.46h283.46V0H0Z" transform="translate(-144.9 -28.71)"/></clipPath><clipPath id="h"><path d="M0 283.46h283.46V0H0Z" transform="translate(-154.86 -24.16)"/></clipPath><clipPath id="i"><path d="M0 283.46h283.46V0H0Z" transform="translate(-175.51 -40.58)"/></clipPath><clipPath id="j"><path d="M0 283.46h283.46V0H0Z" transform="translate(-188.24 -32.94)"/></clipPath><clipPath id="k"><path d="M0 283.46h283.46V0H0Z" transform="translate(-199.97 -38.76)"/></clipPath><clipPath id="l"><path d="M0 283.46h283.46V0H0Z" transform="translate(-210.14 -45.22)"/></clipPath><clipPath id="m"><path d="M0 283.46h283.46V0H0Z" transform="translate(-217.15 -61.76)"/></clipPath><clipPath id="n"><path d="M0 283.46h283.46V0H0Z" transform="translate(-231.42 -64.22)"/></clipPath><clipPath id="o"><path d="M0 283.46h283.46V0H0Z" transform="translate(-239.92 -77.45)"/></clipPath><clipPath id="p"><path d="M0 283.46h283.46V0H0Z" transform="translate(-244.34 -82.83)"/></clipPath><clipPath id="q"><path d="M0 283.46h283.46V0H0Z" transform="translate(-242.46 -97.78)"/></clipPath><clipPath id="r"><path d="M0 283.46h283.46V0H0Z" transform="translate(-259.17 -113.22)"/></clipPath><clipPath id="s"><path d="M0 283.46h283.46V0H0Z" transform="translate(-205.4 -111.1)"/></clipPath><clipPath id="t"><path d="M0 283.46h283.46V0H0Z" transform="translate(-175.9 -91.53)"/></clipPath><clipPath id="u"><path d="M0 283.46h283.46V0H0Z" transform="translate(-187.78 -88.77)"/></clipPath><clipPath id="v"><path d="M0 283.46h283.46V0H0Z" transform="translate(-187.69 -86.84)"/></clipPath><clipPath id="w"><path d="M0 283.46h283.46V0H0Z" transform="translate(-109.45 -111.1)"/></clipPath><clipPath id="x"><path d="M0 283.46h283.46V0H0Z" transform="translate(-79.96 -91.53)"/></clipPath><clipPath id="y"><path d="M0 283.46h283.46V0H0Z" transform="translate(-91.84 -88.77)"/></clipPath><clipPath id="z"><path d="M0 283.46h283.46V0H0Z" transform="translate(-91.74 -86.84)"/></clipPath><clipPath id="AA"><path d="M0 283.46h283.46V0H0Z" transform="translate(-157.46 -94.21)"/></clipPath><clipPath id="AB"><path d="M0 283.46h283.46V0H0Z" transform="translate(-127.96 -74.64)"/></clipPath><clipPath id="AC"><path d="M0 283.46h283.46V0H0Z" transform="translate(-139.84 -71.88)"/></clipPath><clipPath id="AD"><path d="M0 283.46h283.46V0H0Z" transform="translate(-139.74 -69.94)"/></clipPath><clipPath id="AE"><path d="M0 283.46h283.46V0H0Z" transform="translate(-117.64 -167.88)"/></clipPath><clipPath id="AF"><path d="M0 283.46h283.46V0H0Z" transform="translate(-119.14 -161.32)"/></clipPath><clipPath id="AG"><path d="M0 283.46h283.46V0H0Z" transform="translate(-164.35 -161.32)"/></clipPath><clipPath id="AH"><path d="M0 283.46h283.46V0H0Z" transform="translate(-33.73 -142.1)"/></clipPath><clipPath id="AI"><path d="M0 283.46h283.46V0H0Z" transform="translate(-22.46 -146.47)"/></clipPath><clipPath id="AJ"><path d="M0 283.46h283.46V0H0Z" transform="translate(-32.52 -147.76)"/></clipPath><clipPath id="AK"><path d="M0 283.46h283.46V0H0Z"/></clipPath><path id="AL" d="M0 0a7.95 7.95 0 0 0 6.51 6.82c2.22.36 4.15-.47 6.34-.58 2.31-.1 3.93.42 6.1.65 7.7.8 11.76-8.9 5.8-13.83-.47-.4-1-.72-1.55-.98-.1 0 .02.55.02.62a9.5 9.5 0 0 1-4.9 8.62c-.4.22-1.02.4-1.37.63-.16.1-.28.3-.44.42-1.56 1.19-3.56 1.37-5.19.18-.25-.18-.47-.46-.69-.6-.34-.22-.95-.4-1.36-.63a9.46 9.46 0 0 1-4.85-9.24C2.29-6.95.7-4.92.18-2.65c-.05.23-.16.66-.18.87A12.4 12.4 0 0 0 0 0"/><path id="AM" d="M0 0a4.59 4.59 0 1 1 3.85 0c-.2-.14-.38-.31-.6-.44A2.66 2.66 0 0 0 0 0m2.18-12.05a6.9 6.9 0 0 0-.54 0c-8.23.33-10.5 11.57-2.98 15.02.28.13.78.24 1 .39.15.1.35.41.53.56a2.69 2.69 0 0 0 3.45 0c.17-.15.37-.47.52-.56.22-.15.72-.26 1-.4 7.52-3.44 5.25-14.68-2.98-15"/><path id="AN" d="M0 0c.1.03.83-.29 1.05-.33a4.53 4.53 0 0 1 2.13.05c.21.06.73.33.87.26.46-.2.93-1.4.98-1.89.02-.34-.04-1.31-.25-1.58-.03-.04-.05-.06-.1-.05l-1.83.21a23.23 23.23 0 0 1-3.6-.2A3.07 3.07 0 0 0-.6-.7c.08.14.47.66.6.7"/><path id="AO" d="M0 0a1.58 1.58 0 1 1 0 3.16A1.58 1.58 0 0 1 0 0"/><path id="AP" d="M0 0c-.4-.35-1.18-.4-1.66-.2-.71.28-.77 1.12-1.12 1.67a2.79 2.79 0 0 1-4.74-.02c-.6-.96-.5-2.01-2.11-1.75-1.77.3-.98 2.42-.34 3.4a5.8 5.8 0 0 0 9.07.8c.78-.86 2-2.95.9-3.9m-12.4-10.33h-6.63a.51.51 0 0 0-.4.83l3.32 4.15a.52.52 0 0 0 .8 0l3.32-4.15a.51.51 0 0 0-.4-.83m-9.62 9.98c-1.4-.18-1.38.97-1.9 1.8a2.79 2.79 0 0 1-4.73.02c-.35-.55-.4-1.39-1.12-1.68-.48-.2-1.27-.14-1.66.21-1.09.96.12 3.05.9 3.9a5.8 5.8 0 0 0 9.07-.8c.75-1.15 1.41-3.2-.56-3.45m30.96-.76L3.46 4.6l1.29 18.88a1.92 1.92 0 0 1-1.31 1.95L-13.44 31a7.21 7.21 0 0 1-4.54 0l-16.88-5.58a1.92 1.92 0 0 1-1.3-1.95l1.28-18.89-5.49-5.69a1.53 1.53 0 0 1-.07-2.04l6.87-8.24a1.71 1.71 0 0 1 1.98-.48l4.15 1.74a.38.38 0 0 0 .5-.24l.64-2.19a8.9 8.9 0 0 0 3.1 1.13c.44.07.88.1 1.35.1 1.06 0 2.05-.17 3-.35l2.26-.31.57-.02c1.13 0 2.11.17 3.16.34l2.17.31c.34.04.69.06 1.03.06a8.98 8.98 0 0 0 4.55-1.23l.62 2.16a.38.38 0 0 0 .51.24l4.15-1.74a1.71 1.71 0 0 1 1.98.48l6.87 8.24a1.52 1.52 0 0 1-.08 2.04"/></defs><path d="M0 0c-73.7 0-133.44 59.75-133.44 133.44 0 73.7 59.74 133.45 133.44 133.45s133.44-59.75 133.44-133.45S73.7 0 0 0m0 275.18c-78.28 0-141.73-63.46-141.73-141.74C-141.73 55.17-78.28-8.28 0-8.28s141.73 63.46 141.73 141.73c0 78.28-63.45 141.74-141.73 141.74" transform="matrix(1.41111 0 0 -1.4111 200 388.3)" clip-path="url(#A)" fill="#192023"/><path d="M0 0a92.66 92.66 0 1 0 0 185.33A92.66 92.66 0 0 0 0 0m0 226.11c-73.7 0-133.44-59.75-133.44-133.45C-133.44 18.96-73.7-40.78 0-40.78c73.7 0 133.44 59.74 133.44 133.44 0 73.7-59.74 133.45-133.44 133.45" transform="matrix(1.41111 0 0 -1.4111 200 330.76)" clip-path="url(#B)" fill="#fde700"/><g fill="#192023"><path d="M0 0a92.66 92.66 0 1 1 0-185.33A92.66 92.66 0 0 1 0 0" transform="matrix(1.41111 0 0 -1.4111 200 69.24)" clip-path="url(#C)"/><path d="m0 0 1.46 6.25 3.47-.81L3.66 0Zm-5.9 13.54 2.83 1.76 7.49-1.75 1.75-2.82L5.13 6.3l-3.47.81.56 2.37-5.12 1.2-.56-2.37-3.47.81zm-4.65 3.05-1.47-6.28-3.47.81 1.28 5.47zm-6.17-10.76 1.03 4.42 3.47-.8-.55-2.35 5.1-1.19.54 2.34 3.47-.8-1.03-4.43L-7.5 1.3-15 3.05z" transform="matrix(1.41111 0 0 -1.4111 50.87 174.98)" clip-path="url(#D)"/><path d="m0 0 1.67 4.13 17.46-7.08L20.42-6l-.8-1.96zm14.17-11.93 1.82 4.49 3.3-1.34-2.62-6.47-3.06-1.3-17.45 7.08 1.69 4.16z" transform="matrix(1.41111 0 0 -1.4111 38.62 130.23)" clip-path="url(#E)"/><path d="M0 0l3.2.82 7-4.2.8-3.22-3.57-5.96-3.06 1.83 2.5 4.16-4.9 2.93L-.52-7.8-3.57-5.97zm-6.32-10.55l2.29 3.83 18.16-10.9-2.29-3.82z" transform="matrix(1.41111 0 0 -1.4111 52.8 103.71)" clip-path="url(#F)"/><path d="m0 0 5.63 6.83 2.22-2.91-5.1-6.19zm.03 8.3-4.08-4.95L-6.8 5.6l4.08 4.95zm-5.61 7.01-5.26-6.37-2.75 2.27 4.73 5.73zM-15.5 8.9l1.34 1.62L2.18-2.96.84-4.58l-3.3-.32L-15.2 5.61Z" transform="matrix(1.41111 0 0 -1.4111 82.2 105.69)" clip-path="url(#G)"/><path d="M0 0l5.85-1.77L7.93-4.1 5.54-6.24-3.32-2.97l-1.46-1.3-2.38 2.65 3.61 3.23-3.8 4.24-3.61-3.22-2.38 2.65 5.2 4.66 3.28-.18 5.44-6.1L.42.39zm-17.32 1.72L-14 4.69.12-11.1-3.2-14.07z" transform="matrix(1.41111 0 0 -1.4111 99.42 78.47)" clip-path="url(#H)"/><path d="m0 0 7.72 4.33L8.74.8l-7-3.92Zm3.03 7.72-5.6-3.13-1.74 3.1 5.6 3.14zM.33 16.3l-7.2-4.03-1.74 3.1L-2.13 19zm-11.55-2.39 1.83 1.03L.96-3.55-.88-4.58l-3.19.9-8.07 14.41z" transform="matrix(1.41111 0 0 -1.4111 124.5 69.32)" clip-path="url(#I)"/><path d="m0 0 4-1.92 6.34-16.81-4.16-1.58-2.4 6.37-4.26-1.6-1.26 3.33 4.25 1.6-2.56 6.78-4.25-1.6-1.26 3.33zm-7.67-2.9 1.28.49 7.48-19.82-4.17-1.57-6.34 16.81z" transform="matrix(1.41111 0 0 -1.4111 143.37 33.5)" clip-path="url(#J)"/><path d="m0 0 4.18-4.47.64-3.05-3.15-.66L-4.36-.9l-1.92-.4-.73 3.49 4.74.99-1.16 5.58-4.74-.99-.73 3.49 6.83 1.43 2.74-1.8 1.67-8L.55.13Zm-14.13 10.16 4.36.9 4.32-20.72-4.36-.91z" transform="matrix(1.41111 0 0 -1.4111 173.6 44.46)" clip-path="url(#K)"/><path d="m0 0 4.2.27.23-3.56-4.2-.27Zm-8.71-.58 7.82.52L.45-21.22l-4.44-.28-1.12 17.57-4.2-.26z" transform="matrix(1.41111 0 0 -1.4111 192.47 24.34)" clip-path="url(#L)"/><path d="m0 0 4.44-.37-1.77-21.1-4.43.37.75 9-5.24.43.26 3.11L-.75-9zm-10.71.9 4.44-.38-1.77-21.1-4.44.38z" transform="matrix(1.41111 0 0 -1.4111 219.24 25.26)" clip-path="url(#M)"/><path d="m0 0 4.24-1.37-6.5-20.15-4.25 1.37 2.78 8.59-5 1.61.95 2.97 5-1.61zm-10.23 3.3L-6 1.94l-6.5-20.16-4.25 1.37z" transform="matrix(1.41111 0 0 -1.4111 258.25 34.1)" clip-path="url(#N)"/><path d="m0 0-7.38 3.71 1.6 3.18L.86 3.56zm-5.6-7.03-5.73 2.89 1.6 3.18 5.74-2.88zm-8.09-1.81 7.91-3.98-2.35-2.8-7.16 3.6zm5.24 17.08 1.88-.95-9.52-18.91-1.88.94L-19-7.53l7.42 14.76z" transform="matrix(1.41111 0 0 -1.4111 285.08 51.68)" clip-path="url(#O)"/><path d="m0 0 6.06-4.2-2.71-2.45-5.38 3.72Zm5.63 17.53 3.66-2.54L-2.76-2.42-6.42.1Z" transform="matrix(1.41111 0 0 -1.4111 284.85 75.22)" clip-path="url(#P)"/><path d="m0 0 5.45-4.95-3-2.08-4.85 4.4Zm7.88 16.63 3.3-3L-3.05-2.03l-3.3 3Z" transform="matrix(1.41111 0 0 -1.4111 300.56 87.51)" clip-path="url(#Q)"/><path d="m0 0-.29-3.28-12.72-10.53-3.3.31-4.44 5.36L-18-5.87l3.08-3.73L-4.08-.65l-3.09 3.73 2.75 2.27zm-7.84 9.47L-5 6.04-21.3-7.46l-2.84 3.44z" transform="matrix(1.41111 0 0 -1.4111 339.94 93.46)" clip-path="url(#R)"/><path d="m0 0-1.19-4.27-15.42-9.22-2.29 3.83 5.84 3.49-2.33 3.9 3.06 1.83 2.33-3.9 6.22 3.71-2.33 3.9 3.06 1.83zm-4.2 7.04.7-1.18L-21.68-5l-2.29 3.83 15.43 9.21z" transform="matrix(1.41111 0 0 -1.4111 353.94 114.97)" clip-path="url(#S)"/><path d="m0 0-1.27-3.04-15.3-6.2-3.06 1.29-2.6 6.44 3.3 1.34 1.81-4.49L-4.08.62-5.91 5.1l3.3 1.34zm-4.62 11.4 1.68-4.13L-22.57-.7l-1.67 4.13z" transform="matrix(1.41111 0 0 -1.4111 365.56 140.54)" clip-path="url(#T)"/><path d="m0 0-1.47 6.28 3.47.8 1.28-5.46Zm.77 12.38L1.8 7.95l-3.47-.8-.55 2.34-5.09-1.2.55-2.34-3.47-.8-1.03 4.42 1.75 2.79L-2 14.1zM-5.53.66l-1.74-2.82-7.5-1.75-2.81 1.75-1.04 4.43 3.48.8.55-2.36 5.12 1.2-.56 2.36 3.47.82zM-16.8 10.2l1.46-6.24-3.47-.81-1.27 5.43z" transform="matrix(1.41111 0 0 -1.4111 368.43 170.47)" clip-path="url(#U)"/><path d="m0 0 3.78 1.06 1.04-3.7c.05-.17.04-.19-.03-.3l-.33-.59c-.07-.14-.08-.14-.18-.17l-2.32-.65-.07.03-.75.42c-.04.02-.05.03-.1.18zm-.5-7.08.78-.43c.96-.54 1.45-.6 2.6-.27l2.48.7c1.16.32 1.55.62 2.1 1.58l.43.78c.5.9.46 1.59.17 2.6L6.3 4.2c-.21.77-.75 1.07-1.51.85l-13.22-3.7.96-3.45 4.34 1.22.82-2.92-3.85-2.96 1.03-3.68 4.43 3.5.21-.14" transform="matrix(1.41111 0 0 -1.4111 44.5 240.28)" clip-path="url(#V)"/><path d="M0 0l-2.06 4.88.3.12c.56.24.85.25 1.27.19l3.83-.57.24-.58L1.31.91A2.02 2.02 0 0 0 .3.12zm4.08-1.32l2.4 3.4c.77 1.1.92 1.65.34 3.02l-.47 1.1c-.57 1.37-1.07 1.65-2.4 1.87l-4.1.64a4.93 4.93 0 0 1-3.04-.46L-9.73 5.5l1.38-3.27 3.28 1.38L-3-1.27-6.28-2.65-4.9-5.93l6.54 2.76c1.07.45 1.78.88 2.45 1.85" transform="matrix(1.41111 0 0 -1.4111 52.24 266.32)" clip-path="url(#W)"/><path d="m0 0 7.8 4.3.96-1.75 2.67 1.47-3.66 6.63-2.66-1.47.96-1.75-7.8-4.3-.96 1.75-2.64-1.46 3.65-6.62L.96-1.75z" transform="matrix(1.41111 0 0 -1.4111 54.64 282.82)" clip-path="url(#X)"/><path d="m0 0 .68.47c1.12.77 1.68 1.51 1.8 2.43.13.88-.2 1.75-.81 2.97L.07 9.03c-.3.57-.27.6.1.85l.73.5.03.02a.39.39 0 0 0 .07-.01l1.12-.21c.04 0 .06-.01.15-.14L3.53 8.2c.18-.27.22-.37.28-.64l.5-2.53 3.09.28-.15 2.4c-.07.94-.27 1.39-.87 2.26l-1.56 2.27a3 3 0 0 1-2.1 1.43l-1.18.22c-1.01.2-1.6.15-2.69-.6l-.68-.46c-1.03-.7-1.6-1.4-1.81-2.21-.24-.89-.06-1.82.6-3.1l1.72-3.38c.27-.53.25-.55-.1-.78l-.62-.43-.04-.03a.39.39 0 0 0-.07.01l-1.12.2c-.04.02-.06.02-.15.15l-1.55 2.26c-.18.26-.22.37-.27.64l-.5 2.53-3.1-.28.15-2.4c.07-.95.27-1.4.87-2.26l1.85-2.7a3 3 0 0 1 2.1-1.44l1.18-.21c.32-.06.6-.1.85-.1.58 0 1.1.18 1.84.69" transform="matrix(1.41111 0 0 -1.4111 68.05 300.41)" clip-path="url(#Y)"/><path d="m0 0 6.82 5.73L8.1 4.21l2.33 1.95-4.87 5.8L3.23 10l1.28-1.53-6.81-5.73-1.29 1.52-2.3-1.94 4.87-5.79 2.3 1.94z" transform="matrix(1.41111 0 0 -1.4111 73.56 309.51)" clip-path="url(#Z)"/><path d="m0 0-6.11-6.36 1.38 10.04c.07.53.04.83-.36 1.21l-1.04 1c-.38.37-.89.36-1.26-.03l-9.75-10.14 2.45-2.36L-8.6-.3l-1.38-10.02c-.04-.36-.04-.78.35-1.15l1.08-1.05a.88.88 0 0 1 .62-.26h.04a.88.88 0 0 1 .6.3L2.45-2.36Z" transform="matrix(1.41111 0 0 -1.4111 98.87 311.4)" clip-path="url(#a)"/><path d="m0 0 .07.01 1.12.17c.05 0 .07.01.2-.08l2.5-1.86c.26-.2.33-.28.47-.52l1.3-2.23 2.86 1.32-1 2.26A3.81 3.81 0 0 1 5.97.93L3.1 3.05a3 3 0 0 1-2.45.68l-1.19-.18c-1.02-.15-1.57-.38-2.35-1.44L-6.8-3.18c-.78-1.05-.84-1.64-.7-2.66l.19-1.2a3 3 0 0 1 1.35-2.14l3.28-2.43a3.05 3.05 0 0 1 1.92-.72 3.75 3.75 0 0 1 .53.04l1.2.18c1.01.15 1.56.39 2.34 1.44l2.19 2.95c.18.24.26.48.24.72-.02.29-.18.54-.46.75l-3.7 2.74-1.84-2.48L1.4-7.23l-.96-1.3-.03-.03-.06-.01-1.13-.17c-.04 0-.06 0-.2.09l-2.66 1.97c-.13.1-.13.12-.13.16l-.17 1.13v.06L0 0" transform="matrix(1.41111 0 0 -1.4111 103.96 323.35)" clip-path="url(#b)"/><path d="m0 0 6.13-3.12 1.48 2.9-8.22 4.2c-.7.35-1.3.16-1.65-.54L-8.5-8.8l3.2-1.62 2.66 5.23 5.09-2.6 1.48 2.91-5.1 2.6z" transform="matrix(1.41111 0 0 -1.4111 128.2 337.42)" clip-path="url(#c)"/><path d="m0 0-3.96-10.7-.55-.1s-.03 0-.14.05l-3.3 1.21c-.15.06-.16.08-.17.12l-.48 1.04-.03.05L-4.88 1.8l-3.36 1.24-3.73-10.1c-.46-1.23-.35-1.82.08-2.75l.5-1.1a3 3 0 0 1 1.9-1.68l4.02-1.48c.6-.23.94-.3 1.27-.3.16 0 .33.01.52.04l1.12.19c.9.15 1.32.47 1.6 1.24L3.37-1.24z" transform="matrix(1.41111 0 0 -1.4111 151.24 342.37)" clip-path="url(#d)"/><path d="m0 0-11.76 2.82-.76-3.17 4.14-1-2.73-11.37 3.48-.84L-4.9-2.18l4.14-1z" transform="matrix(1.41111 0 0 -1.4111 173.1 348.25)" clip-path="url(#e)"/><path d="m0 0-.52-.21a.47.47 0 0 0-.14 0l-3.5.41c-.15.02-.17.04-.2.07l-.7.9-.04.05a.4.4 0 0 0 0 .05l1.26 10.68-3.55.41-1.26-10.7c-.15-1.3.09-1.85.73-2.65l.74-.95a3.01 3.01 0 0 1 2.25-1.19l4.25-.5a6.84 6.84 0 0 1 .78-.05c.4 0 .66.07 1.02.23l1.05.44c.72.3 1.16.67 1.26 1.58L4.9 10.92l-3.56.42z" transform="matrix(1.41111 0 0 -1.4111 183.94 365.78)" clip-path="url(#f)"/><path d="M0 0a.28.28 0 0 0-.05-.06l-.6-.61c-.03-.04-.04-.05-.2-.05L-4.7-.8l-.06 3.93 3.83.07c.19 0 .2-.02.3-.11l.48-.46c.11-.12.11-.12.12-.23Zm2-3.07.63.64c.77.8.94 1.26.92 2.46L3.5 2.6c-.02 1.2-.21 1.65-1 2.43l-.64.61c-.75.73-1.42.85-2.48.83l-6.56-.1c-.4 0-.7-.12-.9-.34-.22-.21-.32-.51-.31-.91l.22-13.73 3.58.06-.07 4.5 3.02.05 1.9-4.47 3.82.06-2.26 5.17.18.17" transform="matrix(1.41111 0 0 -1.4111 204.47 359.49)" clip-path="url(#g)"/><path d="m0 0-.32 2.59 5.67.7-.4 3.24-5.67-.7-.32 2.54 6.83.85-.4 3.24-9.16-1.14c-.79-.1-1.17-.58-1.07-1.37L-3.3-2.46c.09-.7.49-1.08 1.14-1.08l.23.01L7.4-2.37 6.99.87z" transform="matrix(1.41111 0 0 -1.4111 218.52 365.9)" clip-path="url(#h)"/><path d="M0 0l1.7-5.55-5-1.53L-5-1.53-8.42-2.58l4.39-14.3 3.42 1.04-1.71 5.57 5 1.54 1.7-5.57 3.43 1.04-4.39 14.3z" transform="matrix(1.41111 0 0 -1.4111 247.67 342.74)" clip-path="url(#i)"/><path d="m0 0-1.06 2.38L4.16 4.7 2.84 7.68l-5.22-2.31-1.05 2.34 6.29 2.8-1.33 2.97-8.43-3.75c-.36-.16-.59-.37-.7-.66-.1-.28-.08-.6.08-.96L-2.44-3.3c.16-.37.37-.6.66-.7a.99.99 0 0 1 .36-.07c.18 0 .38.05.6.14L7.76-.12 6.43 2.86z" transform="matrix(1.41111 0 0 -1.4111 265.63 353.52)" clip-path="url(#j)"/><path d="m0 0-5.87 10.12-3.09-1.79 6.89-11.88c.25-.44.58-.67.97-.67.22 0 .46.08.7.22L7.41.52 5.78 3.35Z" transform="matrix(1.41111 0 0 -1.4111 282.18 345.31)" clip-path="url(#k)"/><path d="m0 0-6.86 9.47-2.9-2.1L-1.7-3.75c.23-.32.49-.5.79-.55h.16c.24 0 .5.09.76.28l7.31 5.3-1.91 2.64z" transform="matrix(1.41111 0 0 -1.4111 296.53 336.18)" clip-path="url(#l)"/><path d="M0 0l1.33-.06h.06a.35.35 0 0 0 .04-.04l4.2-4.6.03-.03v-.07l-.07-1.33c0-.04 0-.06-.12-.17L2.51-9-3.15-2.81-.18-.11C-.06 0-.04.01 0 0m4.04 2.35c-.89.96-1.46 1.14-2.48 1.19l-1.2.05a3.03 3.03 0 0 1-2.38-.92L-7.1-1.97c-.58-.53-.61-1.15-.08-1.74l8.43-9.23c.28-.3.59-.46.9-.46.28 0 .56.13.84.38l5.08 4.64A3 3 0 0 1 9.2-6.1l.06 1.2c.04 1.03-.08 1.61-.96 2.58z" transform="matrix(1.41111 0 0 -1.4111 306.42 312.85)" clip-path="url(#m)"/><path d="m0 0-6.64 5.93 1.32 1.48-2.27 2.03-5.03-5.65 2.27-2.02 1.33 1.49 6.64-5.93-1.33-1.49 2.25-2L3.58-.53l-2.25 2z" transform="matrix(1.41111 0 0 -1.4111 326.56 309.38)" clip-path="url(#n)"/><path d="M0 0c-.23.93-.55 1.39-1.45 2.03L-8.16 6.9-10.26 4-3.51-.88c.1-.08.1-.08.13-.19l.9-3.72-3.82-.3c-.1-.02-.1-.02-.2.06l-6.76 4.88-2.1-2.9 6.72-4.85c.77-.56 1.27-.76 2-.76l.39.02 4.59.39c.64.05 1.33.21 1.96 1.1l.35.47c.63.88.58 1.58.42 2.2z" transform="matrix(1.41111 0 0 -1.4111 338.56 290.71)" clip-path="url(#o)"/><path d="m0 0-2.28 1.27 2.78 5-2.85 1.58-2.78-5-2.24 1.26 3.35 6-2.85 1.6-4.49-8.07c-.2-.34-.25-.65-.16-.95.08-.29.29-.52.64-.72L.04-4.1c.24-.14.47-.2.68-.2.4 0 .74.22.99.67l4.56 8.2-2.84 1.59z" transform="matrix(1.41111 0 0 -1.4111 344.78 283.12)" clip-path="url(#p)"/><path d="m0 0 1.46 3.55c.07.17.1.18.22.23l.61.25c.15.06.15.06.25.02l2.24-.91.03-.07.33-.79c.02-.04.02-.06-.04-.2L3.63-1.5Zm8.39 3.77-.35.82C7.63 5.6 7.28 5.95 6.17 6.4l-2.39.98c-1.1.46-1.6.46-2.62.04l-.82-.34C-.63 6.68-1 6.12-1.4 5.13l-2.5-6.07c-.3-.73-.07-1.3.67-1.6l12.7-5.23 1.36 3.3-4.17 1.72L7.8.06l4.86-.04 1.46 3.54-5.65-.02-.08.23" transform="matrix(1.41111 0 0 -1.4111 342.14 262.03)" clip-path="url(#q)"/><path d="m0 0-.6 1.05c-.5.9-.91 1.32-2.18 1.67l-.8.22c-1.3.37-2.23.31-3.01-.18-.76-.47-1.2-1.25-1.75-2.53l-1.4-3.27c-.24-.59-.28-.58-.71-.46l-.84.24h-.05l-.03.06-.56 1c-.02.04-.03.05 0 .2l.6 2.15c.09.3.14.4.32.62l1.6 2-2.2 2.2-1.73-1.66c-.69-.66-.9-1.1-1.18-2.12l-.73-2.65A3 3 0 0 1-15-4l.6-1.05c.5-.9.91-1.33 2.17-1.68l.8-.22c1.2-.33 2.11-.32 2.86.04.83.39 1.42 1.12 1.98 2.45l1.48 3.5c.24.54.26.54.67.42l.77-.2.04-.07.56-1c.02-.03.03-.05-.01-.2l-.73-2.63a1.37 1.37 0 0 0-.31-.63l-1.62-2.01 2.2-2.19L-1.8-7.8c.69.66.9 1.1 1.18 2.12l.87 3.15A3 3 0 0 1 0 0" transform="matrix(1.41111 0 0 -1.4111 365.72 240.24)" clip-path="url(#r)"/></g><g fill="#fde700" transform="scale(1.05834 1.05833)"><path d="M0 0c-.4-.35-1.18-.4-1.66-.2-.71.28-.77 1.12-1.12 1.67a2.79 2.79 0 0 1-4.74-.02c-.6-.96-.5-2.01-2.11-1.75-1.77.3-.98 2.42-.34 3.4a5.8 5.8 0 0 0 9.07.8c.78-.86 2-2.95.9-3.9m-12.4-10.33h-6.63a.51.51 0 0 0-.4.83l3.32 4.15a.52.52 0 0 0 .8 0l3.32-4.15a.51.51 0 0 0-.4-.83m-9.62 9.98c-1.4-.18-1.38.97-1.9 1.8a2.79 2.79 0 0 1-4.73.02c-.35-.55-.4-1.39-1.12-1.68-.48-.2-1.27-.14-1.66.21-1.09.96.12 3.05.9 3.9a5.8 5.8 0 0 0 9.07-.8c.75-1.15 1.41-3.2-.56-3.45m30.96-.76L3.46 4.6l1.29 18.88a1.92 1.92 0 0 1-1.31 1.95L-13.44 31a7.21 7.21 0 0 1-4.54 0l-16.88-5.58a1.92 1.92 0 0 1-1.3-1.95l1.28-18.89-5.49-5.69a1.53 1.53 0 0 1-.07-2.04l6.87-8.24a1.71 1.71 0 0 1 1.98-.48l4.15 1.74a.38.38 0 0 0 .5-.24l.64-2.19a8.9 8.9 0 0 0 3.1 1.13c.44.07.88.1 1.35.1 1.06 0 2.05-.17 3-.35a17.11 17.11 0 0 1 2.83-.33c1.13 0 2.11.17 3.16.34l2.17.31c.34.04.69.06 1.03.06a8.98 8.98 0 0 0 4.55-1.23l.62 2.16a.38.38 0 0 0 .51.24l4.15-1.74a1.71 1.71 0 0 1 1.98.48l6.87 8.24a1.52 1.52 0 0 1-.08 2.04" transform="matrix(1.33333 0 0 -1.33333 273.87 229.81)" clip-path="url(#s)"/><use href="#AL" transform="matrix(1.33333 0 0 -1.33333 234.53 255.91)" clip-path="url(#t)"/><use href="#AM" transform="matrix(1.33333 0 0 -1.33333 250.38 259.59)" clip-path="url(#u)"/><use href="#AN" transform="matrix(1.33333 0 0 -1.33333 250.25 262.17)" clip-path="url(#v)"/><use href="#AP" transform="matrix(1.33333 0 0 -1.33333 145.94 229.81)" clip-path="url(#w)"/><use href="#AL" transform="matrix(1.33333 0 0 -1.33333 106.6 255.91)" clip-path="url(#x)"/><path d="M0 0a4.59 4.59 0 1 1 3.85 0c-.2-.14-.38-.31-.6-.44A2.66 2.66 0 0 0 0 0m2.18-12.05a6.9 6.9 0 0 0-.54 0c-8.23.33-10.5 11.57-2.98 15.02.28.13.78.24 1 .39.15.1.35.41.53.56a2.69 2.69 0 0 0 3.45 0c.17-.15.37-.47.52-.56.22-.15.72-.26 1-.4 7.52-3.44 5.25-14.68-2.98-15" transform="matrix(1.33333 0 0 -1.33333 122.45 259.59)" clip-path="url(#y)"/><use href="#AN" transform="matrix(1.33333 0 0 -1.33333 122.32 262.17)" clip-path="url(#z)"/><use href="#AP" transform="matrix(1.33333 0 0 -1.33333 209.94 252.34)" clip-path="url(#AA)"/><use href="#AL" transform="matrix(1.33333 0 0 -1.33333 170.6 278.44)" clip-path="url(#AB)"/><use href="#AM" transform="matrix(1.33333 0 0 -1.33333 186.45 282.12)" clip-path="url(#AC)"/><use href="#AN" transform="matrix(1.33333 0 0 -1.33333 186.32 284.7)" clip-path="url(#AD)"/><path d="M0 0a42.62 42.62 0 0 1 9.7 4.28c4.37-6.18 3.43-14.3-1.47-18.6-3.79-3.32-9.51-4.01-14.54-1.8 1.33-.19 5.06-.55 8.72 1.62a12.59 12.59 0 0 1 3.4 2.96C.75-13.7-4.8-12.9-8.26-9.53a12 12 0 0 0-3.38 7.75C-8.65-1.74-4.6-1.38 0 0m16.84-29.37l6.77 10.2a.58.58 0 0 0 .96 0l6.77-10.2a.57.57 0 0 0-.1-.76l-2.88-2.47a.57.57 0 0 0-.81.06L24.53-29a.57.57 0 0 1-.87 0l-3.02-3.54a.57.57 0 0 0-.82-.06l-2.87 2.47a.58.58 0 0 0-.1.76M38.47 4.28A42.63 42.63 0 0 1 48.18 0a42.6 42.6 0 0 1 11.64-1.78 12 12 0 0 0-3.38-7.75c-3.45-3.37-9.02-4.18-14.06-2a12.59 12.59 0 0 1 3.4-2.97 13.41 13.41 0 0 1 8.72-1.61c-5.03-2.22-10.76-1.53-14.54 1.78-4.9 4.3-5.84 12.43-1.48 18.61m-59.02-26.76l16.88-5.58a5.38 5.38 0 0 0 3.67-4.6l3.59-12.4.27.1 16.88 5.58c2.16.72 4.55.72 6.71 0l16.88-5.58.25-.1 3.55 12.26a5.38 5.38 0 0 0 3.67 4.74l16.88 5.58c1.35.45 2.79.61 4.2.5l6.1 7.31a.98.98 0 0 1-.05 1.31L65.6.47l2.96 43.48a.82.82 0 0 1-.56.83L24.52 59.17a1.36 1.36 0 0 1-.86 0l-43.48-14.39a.82.82 0 0 1-.56-.83L-17.42.47-30.75-13.35a.98.98 0 0 1-.05-1.31l6.1-7.31a10.74 10.74 0 0 0 4.16-.51" transform="matrix(1.33333 0 0 -1.33333 156.85 154.12)" clip-path="url(#AE)"/><use href="#AO" transform="matrix(1.33333 0 0 -1.33333 158.85 162.86)" clip-path="url(#AF)"/><use href="#AO" transform="matrix(1.33333 0 0 -1.33333 219.14 162.86)" clip-path="url(#AG)"/></g><g fill="#192023"><path d="M0 0v-12.18c0-1.24-1.08-2.48-2.2-2.88-1.04-.35-4.86-.28-6.1-.2a3.4 3.4 0 0 0-3.34 3.62h2.58c.06 0 .36.22.4.3.15.24.11.7-.12.88a2.2 2.2 0 0 1-.35.16h-2.5v1.72h2.5c.04 0 .35.16.4.2.19.2.2.6.07.84-.04.08-.35.3-.4.3h-2.58v1.68l.1.1H-9c.2 0 .41.39.42.6 0 .22-.18.66-.42.66h-2.64v1.78H-9c.2 0 .41.4.42.6 0 .23-.18.67-.42.67h-2.54a.62.62 0 0 0-.1.1V0Z" transform="matrix(1.41111 0 0 -1.4111 47.6 199.48)" clip-path="url(#AH)"/><path d="m0 0 10.85.01a1.56 1.56 0 0 0 .06-3.1H0C-1.83-2.8-1.8-.3 0 0" transform="matrix(1.41111 0 0 -1.4111 31.7 193.31)" clip-path="url(#AI)"/><path d="M0 0h-9.22c.17.86.61 1.69 1.18 2.35.22.27 1.11 1 1.2 1.21.16.34-.05 1.3.15 1.89.75 2.17 3.96 1.88 4.26-.35.05-.38-.07-1.29.05-1.54.09-.2.98-.94 1.2-1.2C-.62 1.68-.18.85 0 0" transform="matrix(1.41111 0 0 -1.4111 45.9 191.5)" clip-path="url(#AJ)"/><path d="M251.76 129.9h7.93v3.92h-7.93zm-3.05 20.26c.07.27.49.76.78.76h3.18v1.45c0 .23.19.41.36.54h5.38c.18-.13.36-.31.36-.54v-1.45h3.18c.32 0 .83-.59.79-.94v-22.25a1 1 0 0 0-.84-.89c-4.17.02-8.36-.04-12.52.04-.3.07-.55.4-.67.67z" transform="matrix(1.41111 0 0 -1.4111 0 400)" clip-path="url(#AK)"/></g></svg>
