<?xml version="1.0" encoding="UTF-8" standalone="no"?>
<!-- Created with Inkscape (http://www.inkscape.org/) -->

<svg
   version="1.1"
   id="svg1"
   width="377.95334"
   height="377.95334"
   viewBox="0 0 377.95334 377.95334"
   xmlns="http://www.w3.org/2000/svg"
   xmlns:svg="http://www.w3.org/2000/svg">
  <defs
     id="defs1">
    <clipPath
       clipPathUnits="userSpaceOnUse"
       id="clipPath2">
      <path
         d="M 0,283.465 H 283.465 V 0 H 0 Z"
         transform="translate(-141.7323,-8.2870002)"
         id="path2" />
    </clipPath>
    <clipPath
       clipPathUnits="userSpaceOnUse"
       id="clipPath4">
      <path
         d="M 0,283.465 H 283.465 V 0 H 0 Z"
         transform="translate(-141.7323,-49.067104)"
         id="path4" />
    </clipPath>
    <clipPath
       clipPathUnits="userSpaceOnUse"
       id="clipPath6">
      <path
         d="M 0,283.465 H 283.465 V 0 H 0 Z"
         transform="translate(-141.7323,-234.39751)"
         id="path6" />
    </clipPath>
    <clipPath
       clipPathUnits="userSpaceOnUse"
       id="clipPath8">
      <path
         d="M 0,283.465 H 283.465 V 0 H 0 Z"
         transform="translate(-36.049001,-159.4633)"
         id="path8" />
    </clipPath>
    <clipPath
       clipPathUnits="userSpaceOnUse"
       id="clipPath10">
      <path
         d="M 0,283.465 H 283.465 V 0 H 0 Z"
         transform="translate(-27.3661,-191.1745)"
         id="path10" />
    </clipPath>
    <clipPath
       clipPathUnits="userSpaceOnUse"
       id="clipPath12">
      <path
         d="M 0,283.465 H 283.465 V 0 H 0 Z"
         transform="translate(-37.419901,-209.96791)"
         id="path12" />
    </clipPath>
    <clipPath
       clipPathUnits="userSpaceOnUse"
       id="clipPath14">
      <path
         d="M 0,283.465 H 283.465 V 0 H 0 Z"
         transform="translate(-58.253201,-208.56761)"
         id="path14" />
    </clipPath>
    <clipPath
       clipPathUnits="userSpaceOnUse"
       id="clipPath16">
      <path
         d="M 0,283.465 H 283.465 V 0 H 0 Z"
         transform="translate(-70.456602,-227.85271)"
         id="path16" />
    </clipPath>
    <clipPath
       clipPathUnits="userSpaceOnUse"
       id="clipPath18">
      <path
         d="M 0,283.465 H 283.465 V 0 H 0 Z"
         transform="translate(-88.2262,-234.33811)"
         id="path18" />
    </clipPath>
    <clipPath
       clipPathUnits="userSpaceOnUse"
       id="clipPath20">
      <path
         d="M 0,283.465 H 283.465 V 0 H 0 Z"
         transform="translate(-101.5977,-259.72721)"
         id="path20" />
    </clipPath>
    <clipPath
       clipPathUnits="userSpaceOnUse"
       id="clipPath22">
      <path
         d="M 0,283.465 H 283.465 V 0 H 0 Z"
         transform="translate(-123.0232,-251.96081)"
         id="path22" />
    </clipPath>
    <clipPath
       clipPathUnits="userSpaceOnUse"
       id="clipPath24">
      <path
         d="M 0,283.465 H 283.465 V 0 H 0 Z"
         transform="translate(-136.3981,-266.21291)"
         id="path24" />
    </clipPath>
    <clipPath
       clipPathUnits="userSpaceOnUse"
       id="clipPath26">
      <path
         d="M 0,283.465 H 283.465 V 0 H 0 Z"
         transform="translate(-155.3635,-265.56551)"
         id="path26" />
    </clipPath>
    <clipPath
       clipPathUnits="userSpaceOnUse"
       id="clipPath28">
      <path
         d="M 0,283.465 H 283.465 V 0 H 0 Z"
         transform="translate(-183.0121,-259.30001)"
         id="path28" />
    </clipPath>
    <clipPath
       clipPathUnits="userSpaceOnUse"
       id="clipPath30">
      <path
         d="M 0,283.465 H 283.465 V 0 H 0 Z"
         transform="translate(-202.0276,-246.84031)"
         id="path30" />
    </clipPath>
    <clipPath
       clipPathUnits="userSpaceOnUse"
       id="clipPath32">
      <path
         d="M 0,283.465 H 283.465 V 0 H 0 Z"
         transform="translate(-201.865,-230.15991)"
         id="path32" />
    </clipPath>
    <clipPath
       clipPathUnits="userSpaceOnUse"
       id="clipPath34">
      <path
         d="M 0,283.465 H 283.465 V 0 H 0 Z"
         transform="translate(-212.99761,-221.44751)"
         id="path34" />
    </clipPath>
    <clipPath
       clipPathUnits="userSpaceOnUse"
       id="clipPath36">
      <path
         d="M 0,283.465 H 283.465 V 0 H 0 Z"
         transform="translate(-240.90201,-217.23051)"
         id="path36" />
    </clipPath>
    <clipPath
       clipPathUnits="userSpaceOnUse"
       id="clipPath38">
      <path
         d="M 0,283.465 H 283.465 V 0 H 0 Z"
         transform="translate(-250.82061,-201.98891)"
         id="path38" />
    </clipPath>
    <clipPath
       clipPathUnits="userSpaceOnUse"
       id="clipPath40">
      <path
         d="M 0,283.465 H 283.465 V 0 H 0 Z"
         transform="translate(-259.05771,-183.86971)"
         id="path40" />
    </clipPath>
    <clipPath
       clipPathUnits="userSpaceOnUse"
       id="clipPath42">
      <path
         d="M 0,283.465 H 283.465 V 0 H 0 Z"
         transform="translate(-261.09291,-162.66091)"
         id="path42" />
    </clipPath>
    <clipPath
       clipPathUnits="userSpaceOnUse"
       id="clipPath44">
      <path
         d="M 0,283.465 H 283.465 V 0 H 0 Z"
         transform="translate(-31.541501,-113.1869)"
         id="path44" />
    </clipPath>
    <clipPath
       clipPathUnits="userSpaceOnUse"
       id="clipPath46">
      <path
         d="M 0,283.465 H 283.465 V 0 H 0 Z"
         transform="translate(-37.020201,-94.731605)"
         id="path46" />
    </clipPath>
    <clipPath
       clipPathUnits="userSpaceOnUse"
       id="clipPath48">
      <path
         d="M 0,283.465 H 283.465 V 0 H 0 Z"
         transform="translate(-38.720101,-83.043005)"
         id="path48" />
    </clipPath>
    <clipPath
       clipPathUnits="userSpaceOnUse"
       id="clipPath50">
      <path
         d="M 0,283.465 H 283.465 V 0 H 0 Z"
         transform="translate(-48.222601,-70.573504)"
         id="path50" />
    </clipPath>
    <clipPath
       clipPathUnits="userSpaceOnUse"
       id="clipPath52">
      <path
         d="M 0,283.465 H 283.465 V 0 H 0 Z"
         transform="translate(-52.129201,-64.125604)"
         id="path52" />
    </clipPath>
    <clipPath
       clipPathUnits="userSpaceOnUse"
       id="clipPath54">
      <path
         d="M 0,283.465 H 283.465 V 0 H 0 Z"
         transform="translate(-70.064502,-62.789104)"
         id="path54" />
    </clipPath>
    <clipPath
       clipPathUnits="userSpaceOnUse"
       id="clipPath56">
      <path
         d="M 0,283.465 H 283.465 V 0 H 0 Z"
         transform="translate(-73.671102,-54.320104)"
         id="path56" />
    </clipPath>
    <clipPath
       clipPathUnits="userSpaceOnUse"
       id="clipPath58">
      <path
         d="M 0,283.465 H 283.465 V 0 H 0 Z"
         transform="translate(-90.852505,-44.348404)"
         id="path58" />
    </clipPath>
    <clipPath
       clipPathUnits="userSpaceOnUse"
       id="clipPath60">
      <path
         d="M 0,283.465 H 283.465 V 0 H 0 Z"
         transform="translate(-107.1799,-40.842304)"
         id="path60" />
    </clipPath>
    <clipPath
       clipPathUnits="userSpaceOnUse"
       id="clipPath62">
      <path
         d="M 0,283.465 H 283.465 V 0 H 0 Z"
         transform="translate(-122.6679,-36.674501)"
         id="path62" />
    </clipPath>
    <clipPath
       clipPathUnits="userSpaceOnUse"
       id="clipPath64">
      <path
         d="M 0,283.465 H 283.465 V 0 H 0 Z"
         transform="translate(-130.3506,-24.252798)"
         id="path64" />
    </clipPath>
    <clipPath
       clipPathUnits="userSpaceOnUse"
       id="clipPath66">
      <path
         d="M 0,283.465 H 283.465 V 0 H 0 Z"
         transform="translate(-144.9031,-28.709298)"
         id="path66" />
    </clipPath>
    <clipPath
       clipPathUnits="userSpaceOnUse"
       id="clipPath68">
      <path
         d="M 0,283.465 H 283.465 V 0 H 0 Z"
         transform="translate(-154.8592,-24.163203)"
         id="path68" />
    </clipPath>
    <clipPath
       clipPathUnits="userSpaceOnUse"
       id="clipPath70">
      <path
         d="M 0,283.465 H 283.465 V 0 H 0 Z"
         transform="translate(-175.5102,-40.580704)"
         id="path70" />
    </clipPath>
    <clipPath
       clipPathUnits="userSpaceOnUse"
       id="clipPath72">
      <path
         d="M 0,283.465 H 283.465 V 0 H 0 Z"
         transform="translate(-188.2413,-32.937003)"
         id="path72" />
    </clipPath>
    <clipPath
       clipPathUnits="userSpaceOnUse"
       id="clipPath74">
      <path
         d="M 0,283.465 H 283.465 V 0 H 0 Z"
         transform="translate(-199.9695,-38.755001)"
         id="path74" />
    </clipPath>
    <clipPath
       clipPathUnits="userSpaceOnUse"
       id="clipPath76">
      <path
         d="M 0,283.465 H 283.465 V 0 H 0 Z"
         transform="translate(-210.13711,-45.224201)"
         id="path76" />
    </clipPath>
    <clipPath
       clipPathUnits="userSpaceOnUse"
       id="clipPath78">
      <path
         d="M 0,283.465 H 283.465 V 0 H 0 Z"
         transform="translate(-217.14981,-61.758499)"
         id="path78" />
    </clipPath>
    <clipPath
       clipPathUnits="userSpaceOnUse"
       id="clipPath80">
      <path
         d="M 0,283.465 H 283.465 V 0 H 0 Z"
         transform="translate(-231.4159,-64.216204)"
         id="path80" />
    </clipPath>
    <clipPath
       clipPathUnits="userSpaceOnUse"
       id="clipPath82">
      <path
         d="M 0,283.465 H 283.465 V 0 H 0 Z"
         transform="translate(-239.92401,-77.446504)"
         id="path82" />
    </clipPath>
    <clipPath
       clipPathUnits="userSpaceOnUse"
       id="clipPath84">
      <path
         d="M 0,283.465 H 283.465 V 0 H 0 Z"
         transform="translate(-244.33461,-82.826802)"
         id="path84" />
    </clipPath>
    <clipPath
       clipPathUnits="userSpaceOnUse"
       id="clipPath86">
      <path
         d="M 0,283.465 H 283.465 V 0 H 0 Z"
         transform="translate(-242.45791,-97.774505)"
         id="path86" />
    </clipPath>
    <clipPath
       clipPathUnits="userSpaceOnUse"
       id="clipPath88">
      <path
         d="M 0,283.465 H 283.465 V 0 H 0 Z"
         transform="translate(-259.17081,-113.21821)"
         id="path88" />
    </clipPath>
    <clipPath
       clipPathUnits="userSpaceOnUse"
       id="clipPath90">
      <path
         d="M 0,283.465 H 283.465 V 0 H 0 Z"
         transform="translate(-205.3987,-111.10441)"
         id="path90" />
    </clipPath>
    <clipPath
       clipPathUnits="userSpaceOnUse"
       id="clipPath92">
      <path
         d="M 0,283.465 H 283.465 V 0 H 0 Z"
         transform="translate(-175.9002,-91.5329)"
         id="path92" />
    </clipPath>
    <clipPath
       clipPathUnits="userSpaceOnUse"
       id="clipPath94">
      <path
         d="M 0,283.465 H 283.465 V 0 H 0 Z"
         transform="translate(-187.78161,-88.771805)"
         id="path94" />
    </clipPath>
    <clipPath
       clipPathUnits="userSpaceOnUse"
       id="clipPath96">
      <path
         d="M 0,283.465 H 283.465 V 0 H 0 Z"
         transform="translate(-187.6851,-86.840105)"
         id="path96" />
    </clipPath>
    <clipPath
       clipPathUnits="userSpaceOnUse"
       id="clipPath98">
      <path
         d="M 0,283.465 H 283.465 V 0 H 0 Z"
         transform="translate(-109.4547,-111.10441)"
         id="path98" />
    </clipPath>
    <clipPath
       clipPathUnits="userSpaceOnUse"
       id="clipPath100">
      <path
         d="M 0,283.465 H 283.465 V 0 H 0 Z"
         transform="translate(-79.956302,-91.5329)"
         id="path100" />
    </clipPath>
    <clipPath
       clipPathUnits="userSpaceOnUse"
       id="clipPath102">
      <path
         d="M 0,283.465 H 283.465 V 0 H 0 Z"
         transform="translate(-91.837705,-88.771805)"
         id="path102" />
    </clipPath>
    <clipPath
       clipPathUnits="userSpaceOnUse"
       id="clipPath104">
      <path
         d="M 0,283.465 H 283.465 V 0 H 0 Z"
         transform="translate(-91.741105,-86.840105)"
         id="path104" />
    </clipPath>
    <clipPath
       clipPathUnits="userSpaceOnUse"
       id="clipPath106">
      <path
         d="M 0,283.465 H 283.465 V 0 H 0 Z"
         transform="translate(-157.45491,-94.209102)"
         id="path106" />
    </clipPath>
    <clipPath
       clipPathUnits="userSpaceOnUse"
       id="clipPath108">
      <path
         d="M 0,283.465 H 283.465 V 0 H 0 Z"
         transform="translate(-127.95651,-74.637702)"
         id="path108" />
    </clipPath>
    <clipPath
       clipPathUnits="userSpaceOnUse"
       id="clipPath110">
      <path
         d="M 0,283.465 H 283.465 V 0 H 0 Z"
         transform="translate(-139.8379,-71.876502)"
         id="path110" />
    </clipPath>
    <clipPath
       clipPathUnits="userSpaceOnUse"
       id="clipPath112">
      <path
         d="M 0,283.465 H 283.465 V 0 H 0 Z"
         transform="translate(-139.7413,-69.944802)"
         id="path112" />
    </clipPath>
    <clipPath
       clipPathUnits="userSpaceOnUse"
       id="clipPath114">
      <path
         d="M 0,283.465 H 283.465 V 0 H 0 Z"
         transform="translate(-117.6385,-167.8774)"
         id="path114" />
    </clipPath>
    <clipPath
       clipPathUnits="userSpaceOnUse"
       id="clipPath116">
      <path
         d="M 0,283.465 H 283.465 V 0 H 0 Z"
         transform="translate(-119.13621,-161.3189)"
         id="path116" />
    </clipPath>
    <clipPath
       clipPathUnits="userSpaceOnUse"
       id="clipPath118">
      <path
         d="M 0,283.465 H 283.465 V 0 H 0 Z"
         transform="translate(-164.353,-161.3189)"
         id="path118" />
    </clipPath>
    <clipPath
       clipPathUnits="userSpaceOnUse"
       id="clipPath120">
      <path
         d="M 0,283.465 H 283.465 V 0 H 0 Z"
         transform="translate(-33.733201,-142.1002)"
         id="path120" />
    </clipPath>
    <clipPath
       clipPathUnits="userSpaceOnUse"
       id="clipPath122">
      <path
         d="M 0,283.465 H 283.465 V 0 H 0 Z"
         transform="translate(-22.4629,-146.4713)"
         id="path122" />
    </clipPath>
    <clipPath
       clipPathUnits="userSpaceOnUse"
       id="clipPath124">
      <path
         d="M 0,283.465 H 283.465 V 0 H 0 Z"
         transform="translate(-32.525101,-147.7595)"
         id="path124" />
    </clipPath>
    <clipPath
       clipPathUnits="userSpaceOnUse"
       id="clipPath126">
      <path
         d="M 0,283.465 H 283.465 V 0 H 0 Z"
         id="path126" />
    </clipPath>
  </defs>
  <g
     id="layer-MC0">
    <path
       id="path1"
       d="m 0,0 c -73.7,0 -133.445,59.746 -133.445,133.445 0,73.7 59.745,133.446 133.445,133.446 73.7,0 133.445,-59.746 133.445,-133.446 C 133.445,59.746 73.7,0 0,0 m 0,275.178 c -78.277,0 -141.732,-63.456 -141.732,-141.733 0,-78.276 63.455,-141.732 141.732,-141.732 78.277,0 141.732,63.456 141.732,141.732 0,78.277 -63.455,141.733 -141.732,141.733"
       style="fill:#192023;fill-opacity:1;fill-rule:nonzero;stroke:none"
       transform="matrix(1.3333333,0,0,-1.3333333,188.9764,366.904)"
       clip-path="url(#clipPath2)" />
    <path
       id="path3"
       d="m 0,0 c -51.178,0 -92.665,41.488 -92.665,92.665 0,51.178 41.487,92.665 92.665,92.665 51.178,0 92.665,-41.487 92.665,-92.665 C 92.665,41.488 51.178,0 0,0 m 0,226.111 c -73.7,0 -133.445,-59.746 -133.445,-133.446 0,-73.7 59.745,-133.445 133.445,-133.445 73.7,0 133.445,59.745 133.445,133.445 0,73.7 -59.745,133.446 -133.445,133.446"
       style="fill:#fde700;fill-opacity:1;fill-rule:nonzero;stroke:none"
       transform="matrix(1.3333333,0,0,-1.3333333,188.9764,312.53053)"
       clip-path="url(#clipPath4)" />
    <path
       id="path5"
       d="m 0,0 c -51.178,0 -92.665,-41.488 -92.665,-92.665 0,-51.178 41.487,-92.665 92.665,-92.665 51.178,0 92.665,41.487 92.665,92.665 C 92.665,-41.488 51.178,0 0,0"
       style="fill:#192023;fill-opacity:1;fill-rule:nonzero;stroke:none"
       transform="matrix(1.3333333,0,0,-1.3333333,188.9764,65.423333)"
       clip-path="url(#clipPath6)" />
    <path
       id="path7"
       d="M 0,0 1.459,6.246 4.93,5.436 3.659,-0.001 Z m -5.892,13.545 2.818,1.751 7.49,-1.75 1.75,-2.819 -1.034,-4.424 -3.47,0.811 0.554,2.371 -5.118,1.196 -0.554,-2.371 -3.47,0.811 z m -4.658,3.04 -1.466,-6.275 -3.47,0.811 1.277,5.465 z m -6.173,-10.756 1.034,4.424 3.47,-0.81 -0.547,-2.343 5.089,-1.189 0.548,2.342 3.47,-0.811 -1.034,-4.424 -2.811,-1.722 -7.49,1.75 z"
       style="fill:#192023;fill-opacity:1;fill-rule:nonzero;stroke:none"
       transform="matrix(1.3333333,0,0,-1.3333333,48.065333,165.3356)"
       clip-path="url(#clipPath8)" />
    <path
       id="path9"
       d="m 0,0 1.674,4.129 17.452,-7.077 1.292,-3.056 -0.792,-1.954 z m 14.169,-11.931 1.819,4.486 3.303,-1.339 -2.623,-6.468 -3.056,-1.293 -17.452,7.076 1.686,4.157 z"
       style="fill:#192023;fill-opacity:1;fill-rule:nonzero;stroke:none"
       transform="matrix(1.3333333,0,0,-1.3333333,36.488133,123.054)"
       clip-path="url(#clipPath10)" />
    <path
       id="path11"
       d="m 0,0 3.193,0.821 7.006,-4.2 0.806,-3.219 -3.574,-5.961 -3.057,1.833 2.489,4.152 -4.891,2.933 -2.489,-4.153 -3.057,1.833 z m -6.323,-10.546 2.291,3.821 18.163,-10.89 -2.291,-3.821 z"
       style="fill:#192023;fill-opacity:1;fill-rule:nonzero;stroke:none"
       transform="matrix(1.3333333,0,0,-1.3333333,49.8932,97.996133)"
       clip-path="url(#clipPath12)" />
    <path
       id="path13"
       d="m 0,0 5.633,6.827 2.22,-2.91 -5.104,-6.186 z m 0.028,8.294 -4.083,-4.948 -2.749,2.268 4.083,4.949 z m -5.609,7.016 -5.255,-6.368 -2.749,2.268 4.725,5.728 z m -9.914,-6.414 1.342,1.627 L 2.182,-2.956 0.84,-4.583 -2.463,-4.899 -15.201,5.612 Z"
       style="fill:#192023;fill-opacity:1;fill-rule:nonzero;stroke:none"
       transform="matrix(1.3333333,0,0,-1.3333333,77.670933,99.8632)"
       clip-path="url(#clipPath14)" />
    <path
       id="path15"
       d="m 0,0 5.854,-1.775 2.08,-2.324 -2.39,-2.139 -8.863,3.267 -1.461,-1.308 -2.377,2.656 3.607,3.229 -3.803,4.248 -3.607,-3.228 -2.377,2.655 5.201,4.655 L -4.865,9.755 0.582,3.669 0.42,0.376 Z M -17.319,1.715 -14,4.687 0.122,-11.091 -3.197,-14.062 Z"
       style="fill:#192023;fill-opacity:1;fill-rule:nonzero;stroke:none"
       transform="matrix(1.3333333,0,0,-1.3333333,93.942133,74.149733)"
       clip-path="url(#clipPath16)" />
    <path
       id="path17"
       d="M 0,0 7.722,4.326 8.739,0.81 1.742,-3.11 Z m 3.028,7.722 -5.597,-3.135 -1.742,3.109 5.597,3.136 z m -2.69,8.571 -7.204,-4.036 -1.742,3.11 6.478,3.629 z m -11.563,-2.392 1.84,1.031 10.349,-18.477 -1.839,-1.031 -3.194,0.901 -8.071,14.408 z"
       style="fill:#192023;fill-opacity:1;fill-rule:nonzero;stroke:none"
       transform="matrix(1.3333333,0,0,-1.3333333,117.63493,65.502533)"
       clip-path="url(#clipPath18)" />
    <path
       id="path19"
       d="m 0,0 3.995,-1.92 6.349,-16.811 -4.168,-1.574 -2.403,6.363 -4.251,-1.605 -1.259,3.334 4.251,1.606 -2.561,6.779 -4.251,-1.605 -1.259,3.334 z m -7.669,-2.896 1.278,0.483 7.482,-19.812 -4.168,-1.574 -6.348,16.811 z"
       style="fill:#192023;fill-opacity:1;fill-rule:nonzero;stroke:none"
       transform="matrix(1.3333333,0,0,-1.3333333,135.4636,31.6504)"
       clip-path="url(#clipPath20)" />
    <path
       id="path21"
       d="M 0,0 4.178,-4.468 4.815,-7.52 1.675,-8.175 -4.361,-0.91 -6.28,-1.31 -7.008,2.178 -2.269,3.167 -3.433,8.749 -8.172,7.76 -8.9,11.249 -2.068,12.675 0.673,10.88 2.341,2.885 0.552,0.115 Z m -14.133,10.157 4.361,0.91 4.324,-20.728 -4.36,-0.91 z"
       style="fill:#192023;fill-opacity:1;fill-rule:nonzero;stroke:none"
       transform="matrix(1.3333333,0,0,-1.3333333,164.03093,42.0056)"
       clip-path="url(#clipPath22)" />
    <path
       id="path23"
       d="M 0,0 4.209,0.267 4.435,-3.29 0.226,-3.557 Z m -8.713,-0.583 7.824,0.527 1.342,-21.165 -4.446,-0.282 -1.115,17.578 -4.209,-0.267 z"
       style="fill:#192023;fill-opacity:1;fill-rule:nonzero;stroke:none"
       transform="matrix(1.3333333,0,0,-1.3333333,181.86413,23.0028)"
       clip-path="url(#clipPath24)" />
    <path
       id="path25"
       d="m 0,0 4.439,-0.371 -1.765,-21.1 -4.439,0.371 0.753,8.996 -5.238,0.438 0.26,3.108 5.238,-0.438 z m -10.713,0.896 4.439,-0.371 -1.765,-21.1 -4.438,0.371 z"
       style="fill:#192023;fill-opacity:1;fill-rule:nonzero;stroke:none"
       transform="matrix(1.3333333,0,0,-1.3333333,207.15133,23.866)"
       clip-path="url(#clipPath26)" />
    <path
       id="path27"
       d="m 0,0 4.24,-1.369 -6.507,-20.154 -4.24,1.369 2.775,8.593 -5.004,1.615 0.958,2.968 5.004,-1.615 z m -10.232,3.304 4.239,-1.369 -6.506,-20.154 -4.241,1.368 z"
       style="fill:#192023;fill-opacity:1;fill-rule:nonzero;stroke:none"
       transform="matrix(1.3333333,0,0,-1.3333333,244.01613,32.22)"
       clip-path="url(#clipPath28)" />
    <path
       id="path29"
       d="m 0,0 -7.376,3.71 1.601,3.183 6.634,-3.335 z m -5.594,-7.026 -5.731,2.882 1.601,3.184 5.731,-2.882 z m -8.093,-1.814 7.907,-3.977 -2.345,-2.81 -7.163,3.603 z m 5.233,17.081 1.884,-0.947 -9.515,-18.918 -1.883,0.948 -1.042,3.15 7.419,14.752 z"
       style="fill:#192023;fill-opacity:1;fill-rule:nonzero;stroke:none"
       transform="matrix(1.3333333,0,0,-1.3333333,269.37013,48.832933)"
       clip-path="url(#clipPath30)" />
    <path
       id="path31"
       d="M 0,0 6.057,-4.192 3.345,-6.649 -2.028,-2.931 Z M 5.626,17.526 9.29,14.99 -2.761,-2.424 -6.424,0.111 Z"
       style="fill:#192023;fill-opacity:1;fill-rule:nonzero;stroke:none"
       transform="matrix(1.3333333,0,0,-1.3333333,269.15333,71.073467)"
       clip-path="url(#clipPath32)" />
    <path
       id="path33"
       d="M 0,0 5.454,-4.951 2.443,-7.03 -2.395,-2.639 Z M 7.88,16.633 11.178,13.639 -3.055,-2.04 -6.354,0.955 Z"
       style="fill:#192023;fill-opacity:1;fill-rule:nonzero;stroke:none"
       transform="matrix(1.3333333,0,0,-1.3333333,283.9968,82.69)"
       clip-path="url(#clipPath34)" />
    <path
       id="path35"
       d="m 0,0 -0.29,-3.284 -12.724,-10.525 -3.303,0.313 -4.43,5.355 2.747,2.271 3.085,-3.73 10.825,8.953 -3.086,3.731 2.747,2.271 z m -7.836,9.474 2.839,-3.433 -16.317,-13.495 -2.84,3.432 z"
       style="fill:#192023;fill-opacity:1;fill-rule:nonzero;stroke:none"
       transform="matrix(1.3333333,0,0,-1.3333333,321.20267,88.312667)"
       clip-path="url(#clipPath36)" />
    <path
       id="path37"
       d="m 0,0 -1.185,-4.271 -15.427,-9.216 -2.285,3.825 5.84,3.488 -2.331,3.901 3.06,1.828 2.33,-3.901 6.222,3.716 -2.331,3.902 3.06,1.828 z m -4.204,7.037 0.701,-1.172 -18.181,-10.861 -2.285,3.825 15.427,9.215 z"
       style="fill:#192023;fill-opacity:1;fill-rule:nonzero;stroke:none"
       transform="matrix(1.3333333,0,0,-1.3333333,334.42747,108.6348)"
       clip-path="url(#clipPath38)" />
    <path
       id="path39"
       d="m 0,0 -1.266,-3.044 -15.304,-6.202 -3.056,1.294 -2.61,6.441 3.303,1.338 1.818,-4.487 13.02,5.276 -1.818,4.487 3.303,1.338 z m -4.617,11.396 1.672,-4.129 -19.626,-7.953 -1.673,4.129 z"
       style="fill:#192023;fill-opacity:1;fill-rule:nonzero;stroke:none"
       transform="matrix(1.3333333,0,0,-1.3333333,345.41027,132.79373)"
       clip-path="url(#clipPath40)" />
    <path
       id="path41"
       d="M 0,0 -1.466,6.275 2.004,7.086 3.281,1.62 Z m 0.767,12.378 1.034,-4.425 -3.47,-0.81 -0.548,2.342 -5.089,-1.189 0.548,-2.343 -3.471,-0.811 -1.034,4.425 1.758,2.789 7.49,1.75 z m -6.289,-11.717 -1.751,-2.818 -7.489,-1.75 -2.819,1.751 -1.034,4.424 3.47,0.811 0.555,-2.371 5.118,1.196 -0.554,2.371 3.47,0.811 z m -11.285,9.532 1.46,-6.247 -3.47,-0.81 -1.271,5.436 z"
       style="fill:#192023;fill-opacity:1;fill-rule:nonzero;stroke:none"
       transform="matrix(1.3333333,0,0,-1.3333333,348.12387,161.07213)"
       clip-path="url(#clipPath42)" />
    <path
       id="path43"
       d="M 0,0 3.784,1.061 4.819,-2.632 C 4.868,-2.807 4.856,-2.829 4.79,-2.947 L 4.464,-3.526 C 4.386,-3.665 4.382,-3.667 4.275,-3.696 l -2.32,-0.656 c 0,0 -0.02,0.005 -0.069,0.033 l -0.746,0.42 c -0.037,0.02 -0.055,0.031 -0.099,0.184 z M -0.498,-7.075 0.275,-7.509 C 1.24,-8.051 1.728,-8.101 2.883,-7.778 l 2.481,0.695 c 1.156,0.325 1.546,0.621 2.088,1.586 l 0.435,0.774 c 0.512,0.91 0.461,1.591 0.177,2.605 L 6.291,4.204 C 6.078,4.966 5.541,5.269 4.777,5.055 l -13.221,-3.707 0.966,-3.444 4.336,1.216 0.817,-2.915 -3.846,-2.964 1.033,-3.684 4.429,3.495 c 0.066,-0.043 0.136,-0.085 0.211,-0.127"
       style="fill:#192023;fill-opacity:1;fill-rule:nonzero;stroke:none"
       transform="matrix(1.3333333,0,0,-1.3333333,42.055333,227.03747)"
       clip-path="url(#clipPath44)" />
    <path
       id="path45"
       d="m 0,0 -2.059,4.88 0.293,0.124 c 0.565,0.238 0.86,0.249 1.276,0.185 L 3.337,4.624 3.582,4.042 1.313,0.905 C 1.071,0.565 0.857,0.362 0.293,0.123 Z m 4.078,-1.321 2.41,3.403 C 7.253,3.175 7.4,3.733 6.824,5.097 L 6.354,6.212 C 5.779,7.576 5.276,7.861 3.956,8.076 L -0.155,8.722 C -1.325,8.917 -2.124,8.71 -3.189,8.261 l -6.541,-2.759 1.382,-3.276 3.282,1.386 2.06,-4.881 -3.283,-1.385 1.382,-3.275 6.54,2.761 c 1.067,0.449 1.773,0.877 2.445,1.847"
       style="fill:#192023;fill-opacity:1;fill-rule:nonzero;stroke:none"
       transform="matrix(1.3333333,0,0,-1.3333333,49.360267,251.64453)"
       clip-path="url(#clipPath46)" />
    <path
       id="path47"
       d="M 0,0 7.8,4.3 8.763,2.553 11.425,4.019 7.772,10.646 5.11,9.18 6.073,7.432 -1.727,3.133 -2.69,4.88 -5.332,3.423 l 3.653,-6.627 2.642,1.457 z"
       style="fill:#192023;fill-opacity:1;fill-rule:nonzero;stroke:none"
       transform="matrix(1.3333333,0,0,-1.3333333,51.6268,267.22933)"
       clip-path="url(#clipPath48)" />
    <path
       id="path49"
       d="M 0,0 0.684,0.469 C 1.801,1.236 2.357,1.984 2.485,2.895 2.61,3.779 2.281,4.653 1.669,5.866 L 0.065,9.034 c -0.29,0.57 -0.26,0.59 0.111,0.844 l 0.72,0.495 c 0.021,0.015 0.034,0.022 0.036,0.024 0.009,0 0.029,-10e-4 0.067,-0.008 L 2.12,10.18 C 2.163,10.172 2.183,10.169 2.274,10.036 L 3.53,8.208 C 3.714,7.94 3.752,7.836 3.806,7.566 L 4.306,5.037 7.4,5.317 7.248,7.712 C 7.185,8.662 6.977,9.11 6.382,9.976 l -1.56,2.273 c -0.494,0.719 -1.04,1.238 -2.099,1.435 l -1.184,0.22 c -1.01,0.188 -1.607,0.146 -2.686,-0.595 L -1.831,12.84 C -2.857,12.135 -3.432,11.431 -3.64,10.626 -3.876,9.74 -3.697,8.815 -3.041,7.532 L -1.317,4.151 C -1.049,3.619 -1.069,3.605 -1.415,3.367 L -2.043,2.936 C -2.064,2.921 -2.077,2.914 -2.079,2.912 c -0.009,0 -0.029,10e-4 -0.067,0.008 L -3.267,3.129 C -3.31,3.137 -3.33,3.14 -3.421,3.273 L -4.968,5.526 C -5.152,5.794 -5.191,5.898 -5.244,6.168 L -5.745,8.697 -8.839,8.416 -8.687,6.022 c 0.063,-0.95 0.271,-1.399 0.866,-2.265 L -5.969,1.06 c 0.494,-0.719 1.04,-1.238 2.099,-1.435 l 1.184,-0.22 c 0.314,-0.058 0.588,-0.094 0.849,-0.094 0.579,0 1.093,0.178 1.837,0.689"
       style="fill:#192023;fill-opacity:1;fill-rule:nonzero;stroke:none"
       transform="matrix(1.3333333,0,0,-1.3333333,64.2968,283.85533)"
       clip-path="url(#clipPath50)" />
    <path
       id="path51"
       d="M 0,0 6.817,5.733 8.1,4.206 10.427,6.163 5.556,11.954 3.23,9.998 4.514,8.471 -2.303,2.739 -3.587,4.265 -5.896,2.323 l 4.871,-5.792 2.309,1.942 z"
       style="fill:#192023;fill-opacity:1;fill-rule:nonzero;stroke:none"
       transform="matrix(1.3333333,0,0,-1.3333333,69.5056,292.45253)"
       clip-path="url(#clipPath52)" />
    <path
       id="path53"
       d="m 0,0 -6.111,-6.36 1.382,10.041 c 0.071,0.529 0.035,0.829 -0.364,1.212 l -1.035,0.994 c -0.385,0.37 -0.892,0.36 -1.261,-0.025 l -9.747,-10.146 2.45,-2.354 6.079,6.327 -1.382,-10.015 c -0.045,-0.364 -0.039,-0.787 0.348,-1.158 l 1.083,-1.041 c 0.227,-0.218 0.457,-0.269 0.62,-0.269 0.012,0 0.024,0.001 0.035,0.001 0.155,0.007 0.385,0.063 0.606,0.294 L 2.45,-2.354 Z"
       style="fill:#192023;fill-opacity:1;fill-rule:nonzero;stroke:none"
       transform="matrix(1.3333333,0,0,-1.3333333,93.419333,294.23453)"
       clip-path="url(#clipPath54)" />
    <path
       id="path55"
       d="M 0,0 C 0.009,0.003 0.028,0.008 0.066,0.013 L 1.193,0.181 C 1.235,0.188 1.257,0.191 1.386,0.095 L 3.888,-1.76 c 0.261,-0.193 0.331,-0.279 0.47,-0.517 L 5.656,-4.51 8.524,-3.188 7.52,-0.93 C 7.152,-0.052 6.809,0.304 5.965,0.93 L 3.103,3.051 C 2.403,3.571 1.717,3.883 0.652,3.726 L -0.54,3.549 C -1.556,3.398 -2.107,3.165 -2.886,2.113 l -3.923,-5.292 c -0.78,-1.051 -0.843,-1.646 -0.692,-2.662 l 0.177,-1.192 c 0.159,-1.066 0.658,-1.63 1.359,-2.149 l 3.276,-2.428 c 0.576,-0.429 1.143,-0.717 1.92,-0.717 0.167,0 0.344,0.014 0.532,0.041 l 1.191,0.177 c 1.016,0.152 1.567,0.385 2.346,1.436 l 2.189,2.952 c 0.182,0.246 0.261,0.483 0.241,0.726 -0.023,0.283 -0.178,0.533 -0.459,0.741 L 1.566,-3.508 -0.27,-5.985 1.403,-7.226 0.44,-8.525 C 0.425,-8.546 0.415,-8.557 0.414,-8.56 0.405,-8.562 0.386,-8.568 0.348,-8.573 L -0.781,-8.74 c -0.042,-0.007 -0.063,-0.009 -0.191,0.085 l -2.664,1.975 c -0.129,0.095 -0.132,0.116 -0.138,0.159 l -0.168,1.128 c -0.005,0.037 -0.006,0.057 -0.007,0.061 l 3.923,5.297 C -0.011,-0.014 -0.001,-0.003 0,0"
       style="fill:#192023;fill-opacity:1;fill-rule:nonzero;stroke:none"
       transform="matrix(1.3333333,0,0,-1.3333333,98.228133,305.52653)"
       clip-path="url(#clipPath56)" />
    <path
       id="path57"
       d="m 0,0 6.131,-3.122 1.481,2.908 -8.224,4.188 C -1.319,4.332 -1.905,4.143 -2.264,3.436 l -6.232,-12.237 3.188,-1.623 2.664,5.232 5.093,-2.593 1.48,2.908 -5.092,2.593 z"
       style="fill:#192023;fill-opacity:1;fill-rule:nonzero;stroke:none"
       transform="matrix(1.3333333,0,0,-1.3333333,121.13667,318.82213)"
       clip-path="url(#clipPath58)" />
    <path
       id="path59"
       d="m 0,0 -3.957,-10.707 -0.55,-0.085 c -0.002,0 -0.036,0 -0.14,0.039 l -3.3,1.218 c -0.151,0.056 -0.159,0.075 -0.177,0.115 l -0.477,1.036 c -0.016,0.034 -0.022,0.053 -0.025,0.057 l 3.741,10.132 -3.355,1.24 -3.735,-10.107 c -0.454,-1.228 -0.347,-1.817 0.083,-2.75 l 0.503,-1.094 c 0.451,-0.978 1.088,-1.381 1.907,-1.683 l 4.015,-1.484 c 0.605,-0.223 0.936,-0.306 1.265,-0.306 0.163,0 0.327,0.02 0.523,0.054 l 1.121,0.184 c 0.902,0.15 1.321,0.475 1.604,1.239 l 4.309,11.663 z"
       style="fill:#192023;fill-opacity:1;fill-rule:nonzero;stroke:none"
       transform="matrix(1.3333333,0,0,-1.3333333,142.90653,323.49693)"
       clip-path="url(#clipPath60)" />
    <path
       id="path61"
       d="m 0,0 -11.76,2.82 -0.761,-3.173 4.141,-0.993 -2.729,-11.377 3.479,-0.833 2.728,11.375 4.141,-0.993 z"
       style="fill:#192023;fill-opacity:1;fill-rule:nonzero;stroke:none"
       transform="matrix(1.3333333,0,0,-1.3333333,163.5572,329.054)"
       clip-path="url(#clipPath62)" />
    <path
       id="path63"
       d="M 0,0 -0.515,-0.213 C -0.516,-0.214 -0.55,-0.221 -0.66,-0.208 l -3.495,0.411 c -0.158,0.018 -0.172,0.035 -0.198,0.069 l -0.708,0.895 c -0.024,0.031 -0.035,0.048 -0.037,0.05 0,0.006 0,0.022 0.003,0.048 l 1.254,10.68 -3.553,0.417 L -8.65,1.66 c -0.153,-1.301 0.089,-1.848 0.726,-2.654 l 0.746,-0.945 c 0.668,-0.845 1.382,-1.087 2.249,-1.189 l 4.251,-0.499 c 0.324,-0.038 0.572,-0.057 0.779,-0.057 0.404,0 0.654,0.074 1.019,0.232 l 1.046,0.442 c 0.722,0.307 1.161,0.665 1.268,1.581 l 1.451,12.35 -3.553,0.416 z"
       style="fill:#192023;fill-opacity:1;fill-rule:nonzero;stroke:none"
       transform="matrix(1.3333333,0,0,-1.3333333,173.8008,345.61627)"
       clip-path="url(#clipPath64)" />
    <path
       id="path65"
       d="M 0,0 C 0,-0.001 -0.01,-0.018 -0.05,-0.059 L -0.645,-0.674 C -0.676,-0.706 -0.689,-0.72 -0.849,-0.723 l -3.858,-0.063 -0.064,3.929 3.835,0.063 c 0.185,0.007 0.2,-0.014 0.297,-0.108 L -0.162,2.636 C -0.047,2.525 -0.047,2.52 -0.045,2.409 v 0 z m 2.009,-3.066 0.617,0.637 c 0.77,0.796 0.943,1.255 0.923,2.455 L 3.507,2.602 C 3.487,3.802 3.3,4.255 2.504,5.025 L 1.866,5.642 C 1.116,6.368 0.451,6.493 -0.609,6.475 L -7.173,6.368 C -7.57,6.361 -7.866,6.252 -8.077,6.034 -8.288,5.816 -8.387,5.517 -8.381,5.119 l 0.225,-13.73 3.576,0.059 -0.074,4.503 3.027,0.05 1.889,-4.474 3.827,0.063 -2.255,5.172 c 0.057,0.053 0.115,0.11 0.175,0.172"
       style="fill:#192023;fill-opacity:1;fill-rule:nonzero;stroke:none"
       transform="matrix(1.3333333,0,0,-1.3333333,193.20413,339.67427)"
       clip-path="url(#clipPath66)" />
    <path
       id="path67"
       d="M 0,0 -0.321,2.589 5.351,3.293 4.949,6.531 -0.723,5.827 -1.039,8.372 5.789,9.219 5.388,12.458 -3.772,11.321 c -0.786,-0.097 -1.165,-0.583 -1.067,-1.37 l 1.54,-12.411 c 0.087,-0.705 0.488,-1.083 1.136,-1.083 0.075,0 0.153,0.005 0.234,0.016 l 9.315,1.155 -0.402,3.239 z"
       style="fill:#192023;fill-opacity:1;fill-rule:nonzero;stroke:none"
       transform="matrix(1.3333333,0,0,-1.3333333,206.47893,345.73573)"
       clip-path="url(#clipPath68)" />
    <path
       id="path69"
       d="m 0,0 1.702,-5.55 -5.002,-1.533 -1.701,5.55 -3.42,-1.049 4.386,-14.306 3.42,1.049 -1.708,5.571 5.001,1.534 1.708,-5.571 3.42,1.048 L 3.42,1.049 Z"
       style="fill:#192023;fill-opacity:1;fill-rule:nonzero;stroke:none"
       transform="matrix(1.3333333,0,0,-1.3333333,234.0136,323.84573)"
       clip-path="url(#clipPath70)" />
    <path
       id="path71"
       d="M 0,0 -1.059,2.383 4.162,4.703 2.836,7.685 -2.385,5.365 -3.426,7.706 2.86,10.501 1.534,13.482 -6.897,9.734 C -7.261,9.573 -7.49,9.356 -7.599,9.073 -7.708,8.791 -7.682,8.476 -7.521,8.113 l 5.079,-11.425 c 0.161,-0.363 0.377,-0.593 0.661,-0.702 0.114,-0.044 0.234,-0.066 0.359,-0.066 0.186,0 0.385,0.048 0.601,0.144 l 8.576,3.812 -1.326,2.982 z"
       style="fill:#192023;fill-opacity:1;fill-rule:nonzero;stroke:none"
       transform="matrix(1.3333333,0,0,-1.3333333,250.9884,334.03733)"
       clip-path="url(#clipPath72)" />
    <path
       id="path73"
       d="M 0,0 -5.865,10.123 -8.96,8.33 -2.075,-3.554 c 0.253,-0.438 0.588,-0.661 0.977,-0.661 0.218,0 0.454,0.071 0.701,0.214 L 7.414,0.524 5.779,3.348 Z"
       style="fill:#192023;fill-opacity:1;fill-rule:nonzero;stroke:none"
       transform="matrix(1.3333333,0,0,-1.3333333,266.626,326.28)"
       clip-path="url(#clipPath74)" />
    <path
       id="path75"
       d="M 0,0 -6.863,9.473 -9.76,7.374 -1.703,-3.746 c 0.234,-0.322 0.493,-0.502 0.792,-0.55 0.052,-0.008 0.104,-0.013 0.156,-0.013 0.249,0 0.502,0.096 0.768,0.289 l 7.31,5.296 -1.915,2.642 z"
       style="fill:#192023;fill-opacity:1;fill-rule:nonzero;stroke:none"
       transform="matrix(1.3333333,0,0,-1.3333333,280.1828,317.6544)"
       clip-path="url(#clipPath76)" />
    <path
       id="path77"
       d="M 0,0 1.329,-0.06 C 1.366,-0.062 1.383,-0.066 1.392,-0.065 1.397,-0.069 1.408,-0.079 1.426,-0.098 L 5.627,-4.7 C 5.644,-4.719 5.653,-4.731 5.655,-4.733 5.656,-4.741 5.657,-4.762 5.656,-4.8 L 5.595,-6.13 C 5.593,-6.172 5.593,-6.193 5.475,-6.301 l -2.966,-2.708 -5.657,6.196 2.966,2.708 C -0.064,0.004 -0.045,0.006 0,0 M 4.038,2.346 C 3.155,3.313 2.583,3.488 1.557,3.535 L 0.354,3.59 C -0.715,3.634 -1.372,3.258 -2.017,2.669 L -7.098,-1.97 c -0.585,-0.534 -0.613,-1.15 -0.079,-1.735 l 8.431,-9.236 c 0.28,-0.306 0.582,-0.46 0.891,-0.46 0.28,0 0.566,0.127 0.844,0.382 L 8.07,-8.38 c 0.645,0.588 1.084,1.2 1.133,2.277 L 9.258,-4.9 c 0.046,1.027 -0.077,1.612 -0.959,2.578 z"
       style="fill:#192023;fill-opacity:1;fill-rule:nonzero;stroke:none"
       transform="matrix(1.3333333,0,0,-1.3333333,289.53307,295.60867)"
       clip-path="url(#clipPath78)" />
    <path
       id="path79"
       d="m 0,0 -6.645,5.927 1.327,1.488 -2.268,2.023 -5.035,-5.646 2.268,-2.023 1.328,1.489 6.644,-5.928 -1.327,-1.488 2.251,-2.007 5.036,5.646 -2.252,2.007 z"
       style="fill:#192023;fill-opacity:1;fill-rule:nonzero;stroke:none"
       transform="matrix(1.3333333,0,0,-1.3333333,308.55453,292.33173)"
       clip-path="url(#clipPath80)" />
    <path
       id="path81"
       d="M 0,0 C -0.227,0.93 -0.552,1.385 -1.446,2.033 L -8.164,6.889 -10.26,3.99 -3.506,-0.894 c 0.105,-0.075 0.105,-0.075 0.13,-0.184 l 0.901,-3.719 -3.82,-0.31 c -0.105,-0.01 -0.106,-0.011 -0.211,0.066 l -6.753,4.882 -2.096,-2.899 6.717,-4.856 c 0.765,-0.552 1.266,-0.754 1.989,-0.754 0.125,0 0.256,0.006 0.397,0.018 l 4.59,0.385 c 0.646,0.05 1.331,0.219 1.967,1.099 l 0.342,0.472 c 0.635,0.879 0.581,1.582 0.427,2.209 z"
       style="fill:#192023;fill-opacity:1;fill-rule:nonzero;stroke:none"
       transform="matrix(1.3333333,0,0,-1.3333333,319.89867,274.69133)"
       clip-path="url(#clipPath82)" />
    <path
       id="path83"
       d="m 0,0 -2.277,1.27 2.781,4.991 -2.85,1.588 -2.782,-4.991 -2.239,1.248 3.35,6.009 -2.85,1.588 -4.493,-8.06 c -0.194,-0.347 -0.247,-0.657 -0.164,-0.949 0.083,-0.292 0.292,-0.528 0.639,-0.721 l 10.92,-6.087 c 0.244,-0.136 0.475,-0.203 0.689,-0.203 0.395,0 0.732,0.228 0.982,0.677 l 4.569,8.197 -2.85,1.589 z"
       style="fill:#192023;fill-opacity:1;fill-rule:nonzero;stroke:none"
       transform="matrix(1.3333333,0,0,-1.3333333,325.77947,267.5176)"
       clip-path="url(#clipPath84)" />
    <path
       id="path85"
       d="m 0,0 1.461,3.547 c 0.069,0.169 0.092,0.178 0.216,0.23 l 0.615,0.256 c 0.145,0.061 0.15,0.06 0.252,0.018 L 4.776,3.137 c 0,0 0.012,-0.016 0.034,-0.069 L 5.139,2.28 C 5.156,2.239 5.164,2.22 5.103,2.072 L 3.634,-1.496 Z M 8.386,3.769 8.045,4.588 C 7.619,5.61 7.266,5.95 6.157,6.407 L 3.774,7.388 C 2.664,7.846 2.174,7.853 1.152,7.426 L 0.333,7.085 C -0.63,6.683 -1.01,6.115 -1.412,5.142 l -2.499,-6.071 c -0.302,-0.732 -0.065,-1.302 0.668,-1.604 l 12.697,-5.228 1.362,3.307 -4.165,1.715 1.153,2.8 L 12.66,0.024 14.117,3.562 8.475,3.539 C 8.449,3.614 8.42,3.689 8.386,3.769"
       style="fill:#192023;fill-opacity:1;fill-rule:nonzero;stroke:none"
       transform="matrix(1.3333333,0,0,-1.3333333,323.2772,247.58733)"
       clip-path="url(#clipPath86)" />
    <path
       id="path87"
       d="M 0,0 -0.593,1.048 C -1.099,1.942 -1.514,2.373 -2.776,2.722 L -3.574,2.943 C -4.881,3.305 -5.811,3.25 -6.59,2.763 -7.351,2.287 -7.792,1.505 -8.34,0.227 l -1.394,-3.265 c -0.249,-0.59 -0.287,-0.578 -0.717,-0.459 l -0.842,0.233 c -0.025,0.007 -0.039,0.012 -0.042,0.012 -0.005,0.007 -0.017,0.024 -0.036,0.056 l -0.562,0.994 c -0.021,0.037 -0.031,0.055 0.012,0.21 l 0.592,2.137 c 0.086,0.313 0.141,0.409 0.314,0.624 l 1.613,2.01 -2.204,2.188 -1.736,-1.657 c -0.686,-0.658 -0.895,-1.107 -1.176,-2.118 l -0.736,-2.656 c -0.233,-0.841 -0.279,-1.593 0.252,-2.53 l 0.593,-1.048 c 0.505,-0.894 0.921,-1.324 2.182,-1.674 l 0.799,-0.222 c 1.198,-0.332 2.108,-0.319 2.859,0.039 0.829,0.389 1.423,1.121 1.983,2.449 l 1.479,3.494 c 0.235,0.547 0.257,0.542 0.664,0.429 l 0.772,-0.211 c 0,0 0.013,-0.014 0.039,-0.061 l 0.562,-0.992 c 0.022,-0.039 0.032,-0.057 -0.011,-0.211 l -0.73,-2.633 c -0.087,-0.314 -0.142,-0.41 -0.314,-0.625 l -1.614,-2.01 2.205,-2.188 1.735,1.657 c 0.687,0.659 0.897,1.107 1.177,2.119 L 0.252,-2.53 C 0.485,-1.689 0.531,-0.937 0,0"
       style="fill:#192023;fill-opacity:1;fill-rule:nonzero;stroke:none"
       transform="matrix(1.3333333,0,0,-1.3333333,345.56107,226.99573)"
       clip-path="url(#clipPath88)" />
    <path
       id="path89"
       d="M 0,0 C -0.394,-0.348 -1.175,-0.404 -1.66,-0.207 -2.373,0.082 -2.434,0.919 -2.784,1.472 -3.898,3.231 -6.413,3.201 -7.52,1.446 -8.123,0.491 -8.026,-0.564 -9.63,-0.3 c -1.775,0.292 -0.979,2.422 -0.344,3.398 2.033,3.123 6.539,3.547 9.077,0.794 C -0.122,3.051 1.087,0.962 0,0 m -12.391,-10.334 h -6.639 c -0.431,0 -0.671,0.498 -0.401,0.835 l 3.319,4.15 c 0.206,0.257 0.597,0.257 0.803,0 l 3.32,-4.15 c 0.269,-0.337 0.029,-0.835 -0.402,-0.835 m -9.615,9.981 c -1.404,-0.181 -1.389,0.977 -1.895,1.799 -1.084,1.765 -3.63,1.772 -4.736,0.026 -0.35,-0.553 -0.411,-1.39 -1.123,-1.679 -0.485,-0.197 -1.267,-0.141 -1.661,0.207 -1.087,0.962 0.123,3.051 0.897,3.892 2.538,2.753 7.044,2.329 9.077,-0.794 0.748,-1.149 1.411,-3.198 -0.559,-3.451 M 8.945,-1.108 3.46,4.581 4.748,23.466 c 0.059,0.873 -0.48,1.675 -1.311,1.95 L -13.444,31 c -1.472,0.487 -3.061,0.487 -4.533,0 l -16.881,-5.584 c -0.831,-0.275 -1.37,-1.077 -1.31,-1.95 l 1.287,-18.885 -5.484,-5.689 c -0.543,-0.564 -0.575,-1.445 -0.074,-2.046 l 6.871,-8.239 c 0.482,-0.577 1.284,-0.772 1.977,-0.48 l 4.147,1.748 c 0.208,0.088 0.447,-0.026 0.51,-0.243 l 0.633,-2.189 c 0.949,0.559 1.998,0.952 3.101,1.129 0.44,0.07 0.881,0.104 1.35,0.104 1.065,0 2.052,-0.18 3.006,-0.355 0.776,-0.142 1.509,-0.276 2.258,-0.312 0.189,-0.009 0.38,-0.014 0.567,-0.014 1.125,0 2.113,0.165 3.158,0.338 0.681,0.114 1.385,0.231 2.17,0.312 0.344,0.036 0.69,0.054 1.028,0.054 1.649,0 3.205,-0.438 4.552,-1.226 l 0.625,2.159 c 0.062,0.217 0.301,0.331 0.509,0.243 l 4.147,-1.748 c 0.693,-0.292 1.495,-0.097 1.977,0.48 l 6.871,8.239 c 0.501,0.6 0.47,1.482 -0.073,2.046"
       style="fill:#fde700;fill-opacity:1;fill-rule:nonzero;stroke:none"
       transform="matrix(1.3333333,0,0,-1.3333333,273.86493,229.81413)"
       clip-path="url(#clipPath90)" />
    <path
       id="path91"
       d="m 0,0 c 0.32,3.372 3.196,6.293 6.51,6.822 2.218,0.355 4.153,-0.472 6.338,-0.577 2.313,-0.112 3.928,0.416 6.098,0.641 7.709,0.8 11.761,-8.904 5.81,-13.831 -0.472,-0.391 -1.007,-0.709 -1.56,-0.972 -0.098,0 0.023,0.545 0.026,0.621 0.134,3.539 -1.807,6.931 -4.902,8.617 C 17.911,1.544 17.3,1.726 16.954,1.947 16.788,2.053 16.668,2.249 16.513,2.368 14.952,3.559 12.954,3.739 11.321,2.552 11.075,2.374 10.848,2.085 10.633,1.947 10.287,1.726 9.676,1.544 9.266,1.321 5.971,-0.475 4.02,-4.163 4.418,-7.916 2.292,-6.951 0.696,-4.925 0.178,-2.65 0.125,-2.417 0.021,-1.994 0,-1.777 -0.043,-1.329 -0.042,-0.448 0,0"
       style="fill:#fde700;fill-opacity:1;fill-rule:nonzero;stroke:none"
       transform="matrix(1.3333333,0,0,-1.3333333,234.5336,255.90947)"
       clip-path="url(#clipPath92)" />
    <path
       id="path93"
       d="m 0,0 c -3.553,-1.654 -3.605,-6.723 0.028,-8.357 3.597,-1.619 7.381,1.713 6.299,5.488 -0.354,1.234 -1.32,2.316 -2.473,2.861 C 3.645,-0.138 3.472,-0.313 3.255,-0.439 2.172,-1.065 0.879,-0.873 0,0 m 2.181,-12.048 c -0.176,-0.007 -0.362,-0.007 -0.538,0 -8.234,0.331 -10.498,11.567 -2.983,15.017 0.283,0.13 0.783,0.243 1.009,0.391 0.144,0.094 0.344,0.412 0.518,0.56 0.988,0.835 2.462,0.835 3.45,0 C 3.811,3.772 4.011,3.454 4.155,3.36 4.381,3.212 4.881,3.099 5.164,2.969 c 7.515,-3.45 5.251,-14.686 -2.983,-15.017"
       style="fill:#fde700;fill-opacity:1;fill-rule:nonzero;stroke:none"
       transform="matrix(1.3333333,0,0,-1.3333333,250.37547,259.59093)"
       clip-path="url(#clipPath94)" />
    <path
       id="path95"
       d="M 0,0 C 0.102,0.028 0.828,-0.286 1.047,-0.334 1.739,-0.484 2.5,-0.466 3.181,-0.276 3.392,-0.217 3.907,0.05 4.055,-0.018 4.506,-0.228 4.982,-1.42 5.025,-1.905 5.055,-2.249 4.993,-3.224 4.783,-3.494 4.755,-3.53 4.73,-3.551 4.681,-3.544 L 2.846,-3.329 C 1.643,-3.297 0.448,-3.371 -0.741,-3.524 -1.156,-2.63 -1.105,-1.548 -0.6,-0.697 -0.517,-0.556 -0.131,-0.036 0,0"
       style="fill:#fde700;fill-opacity:1;fill-rule:nonzero;stroke:none"
       transform="matrix(1.3333333,0,0,-1.3333333,250.2468,262.16653)"
       clip-path="url(#clipPath96)" />
    <path
       id="path97"
       d="M 0,0 C -0.394,-0.348 -1.175,-0.404 -1.66,-0.207 -2.373,0.082 -2.434,0.919 -2.784,1.472 -3.898,3.231 -6.413,3.201 -7.52,1.446 -8.123,0.491 -8.026,-0.564 -9.63,-0.3 c -1.775,0.292 -0.979,2.422 -0.344,3.398 2.033,3.123 6.539,3.547 9.077,0.794 C -0.122,3.051 1.087,0.962 0,0 m -12.391,-10.334 h -6.639 c -0.431,0 -0.671,0.498 -0.401,0.835 l 3.319,4.15 c 0.206,0.257 0.597,0.257 0.803,0 l 3.32,-4.15 c 0.269,-0.337 0.029,-0.835 -0.402,-0.835 m -9.615,9.981 c -1.404,-0.181 -1.389,0.977 -1.895,1.799 -1.084,1.765 -3.63,1.772 -4.736,0.026 -0.35,-0.553 -0.411,-1.39 -1.123,-1.679 -0.485,-0.197 -1.267,-0.141 -1.661,0.207 -1.087,0.962 0.123,3.051 0.897,3.892 2.538,2.753 7.044,2.329 9.077,-0.794 0.748,-1.149 1.411,-3.198 -0.559,-3.451 M 8.945,-1.108 3.46,4.581 4.748,23.466 c 0.059,0.873 -0.48,1.675 -1.311,1.95 L -13.444,31 c -1.472,0.487 -3.061,0.487 -4.533,0 l -16.881,-5.584 c -0.831,-0.275 -1.37,-1.077 -1.31,-1.95 l 1.287,-18.885 -5.484,-5.689 c -0.543,-0.564 -0.575,-1.445 -0.074,-2.046 l 6.871,-8.239 c 0.482,-0.577 1.284,-0.772 1.977,-0.48 l 4.147,1.748 c 0.208,0.088 0.447,-0.026 0.51,-0.243 l 0.633,-2.189 c 0.949,0.559 1.998,0.952 3.101,1.129 0.44,0.07 0.881,0.104 1.35,0.104 1.065,0 2.052,-0.18 3.006,-0.355 0.776,-0.142 1.508,-0.276 2.258,-0.312 0.189,-0.009 0.38,-0.014 0.567,-0.014 1.125,0 2.113,0.165 3.158,0.338 0.681,0.114 1.385,0.231 2.17,0.312 0.344,0.036 0.69,0.054 1.028,0.054 1.649,0 3.205,-0.438 4.552,-1.226 l 0.625,2.159 c 0.062,0.217 0.301,0.331 0.509,0.243 l 4.147,-1.748 c 0.693,-0.292 1.495,-0.097 1.977,0.48 l 6.871,8.239 c 0.501,0.6 0.47,1.482 -0.073,2.046"
       style="fill:#fde700;fill-opacity:1;fill-rule:nonzero;stroke:none"
       transform="matrix(1.3333333,0,0,-1.3333333,145.9396,229.81413)"
       clip-path="url(#clipPath98)" />
    <path
       id="path99"
       d="m 0,0 c 0.32,3.372 3.196,6.293 6.51,6.822 2.218,0.355 4.153,-0.472 6.338,-0.577 2.313,-0.112 3.928,0.416 6.098,0.641 7.709,0.8 11.761,-8.904 5.81,-13.831 -0.472,-0.391 -1.007,-0.709 -1.56,-0.972 -0.098,0 0.023,0.545 0.026,0.621 0.134,3.539 -1.807,6.931 -4.902,8.617 C 17.911,1.544 17.3,1.726 16.954,1.947 16.788,2.053 16.668,2.249 16.513,2.368 14.952,3.559 12.954,3.739 11.321,2.552 11.075,2.374 10.848,2.085 10.633,1.947 10.287,1.726 9.676,1.544 9.266,1.321 5.971,-0.475 4.02,-4.163 4.418,-7.916 2.292,-6.951 0.696,-4.925 0.178,-2.65 0.125,-2.417 0.021,-1.994 0,-1.777 -0.043,-1.329 -0.042,-0.448 0,0"
       style="fill:#fde700;fill-opacity:1;fill-rule:nonzero;stroke:none"
       transform="matrix(1.3333333,0,0,-1.3333333,106.6084,255.90947)"
       clip-path="url(#clipPath100)" />
    <path
       id="path101"
       d="m 0,0 c -3.553,-1.654 -3.605,-6.723 0.028,-8.357 3.596,-1.619 7.381,1.713 6.299,5.488 -0.354,1.234 -1.32,2.316 -2.473,2.861 C 3.645,-0.138 3.472,-0.313 3.255,-0.439 2.172,-1.065 0.879,-0.873 0,0 m 2.181,-12.048 c -0.176,-0.007 -0.362,-0.007 -0.538,0 -8.234,0.331 -10.498,11.567 -2.983,15.017 0.283,0.13 0.783,0.243 1.009,0.391 0.144,0.094 0.344,0.412 0.518,0.56 0.988,0.835 2.462,0.835 3.45,0 C 3.811,3.772 4.011,3.454 4.155,3.36 4.381,3.212 4.881,3.099 5.164,2.969 c 7.515,-3.45 5.251,-14.686 -2.983,-15.017"
       style="fill:#fde700;fill-opacity:1;fill-rule:nonzero;stroke:none"
       transform="matrix(1.3333333,0,0,-1.3333333,122.45027,259.59093)"
       clip-path="url(#clipPath102)" />
    <path
       id="path103"
       d="M 0,0 C 0.102,0.028 0.828,-0.286 1.047,-0.334 1.739,-0.484 2.5,-0.466 3.181,-0.276 3.392,-0.217 3.907,0.05 4.055,-0.018 4.506,-0.228 4.982,-1.42 5.025,-1.905 5.055,-2.249 4.993,-3.224 4.783,-3.494 4.755,-3.53 4.73,-3.551 4.681,-3.544 L 2.846,-3.329 C 1.643,-3.297 0.448,-3.371 -0.741,-3.524 -1.156,-2.63 -1.105,-1.548 -0.6,-0.697 -0.517,-0.556 -0.131,-0.036 0,0"
       style="fill:#fde700;fill-opacity:1;fill-rule:nonzero;stroke:none"
       transform="matrix(1.3333333,0,0,-1.3333333,122.32147,262.16653)"
       clip-path="url(#clipPath104)" />
    <path
       id="path105"
       d="M 0,0 C -0.394,-0.348 -1.176,-0.404 -1.66,-0.207 -2.373,0.082 -2.434,0.919 -2.784,1.472 -3.898,3.231 -6.413,3.201 -7.52,1.446 -8.123,0.491 -8.026,-0.564 -9.63,-0.3 c -1.775,0.292 -0.979,2.422 -0.344,3.398 2.033,3.123 6.539,3.547 9.077,0.794 C -0.122,3.051 1.087,0.962 0,0 m -12.391,-10.334 h -6.639 c -0.431,0 -0.671,0.498 -0.401,0.835 l 3.319,4.15 c 0.206,0.257 0.597,0.257 0.803,0 l 3.32,-4.15 c 0.269,-0.337 0.029,-0.835 -0.402,-0.835 m -9.615,9.981 c -1.404,-0.181 -1.389,0.977 -1.895,1.799 -1.084,1.765 -3.63,1.772 -4.736,0.026 -0.35,-0.553 -0.411,-1.39 -1.123,-1.679 -0.485,-0.197 -1.267,-0.141 -1.661,0.207 -1.087,0.962 0.123,3.051 0.897,3.892 2.538,2.753 7.044,2.329 9.077,-0.794 0.748,-1.149 1.411,-3.198 -0.559,-3.451 M 8.945,-1.108 3.46,4.581 4.748,23.466 c 0.059,0.873 -0.48,1.675 -1.311,1.95 L -13.444,31 c -1.472,0.487 -3.061,0.487 -4.533,0 l -16.881,-5.584 c -0.831,-0.275 -1.37,-1.077 -1.31,-1.95 l 1.287,-18.885 -5.484,-5.689 c -0.543,-0.564 -0.575,-1.445 -0.074,-2.046 l 6.871,-8.239 c 0.482,-0.577 1.284,-0.772 1.977,-0.48 l 4.147,1.748 c 0.208,0.088 0.447,-0.026 0.51,-0.243 l 0.633,-2.189 c 0.949,0.559 1.998,0.952 3.101,1.129 0.44,0.07 0.881,0.104 1.35,0.104 1.065,0 2.052,-0.18 3.006,-0.355 0.776,-0.142 1.508,-0.276 2.258,-0.312 0.189,-0.009 0.38,-0.014 0.567,-0.014 1.125,0 2.113,0.165 3.158,0.338 0.681,0.114 1.385,0.231 2.17,0.312 0.344,0.036 0.69,0.054 1.028,0.054 1.649,0 3.205,-0.438 4.552,-1.226 l 0.625,2.159 c 0.062,0.217 0.301,0.331 0.509,0.243 l 4.147,-1.748 c 0.693,-0.292 1.495,-0.097 1.977,0.48 l 6.871,8.239 c 0.501,0.6 0.47,1.482 -0.073,2.046"
       style="fill:#fde700;fill-opacity:1;fill-rule:nonzero;stroke:none"
       transform="matrix(1.3333333,0,0,-1.3333333,209.93987,252.3412)"
       clip-path="url(#clipPath106)" />
    <path
       id="path107"
       d="m 0,0 c 0.32,3.372 3.196,6.293 6.51,6.822 2.218,0.355 4.153,-0.472 6.338,-0.577 2.313,-0.112 3.928,0.416 6.098,0.641 7.709,0.8 11.761,-8.904 5.81,-13.831 -0.472,-0.391 -1.007,-0.709 -1.56,-0.972 -0.098,0 0.023,0.545 0.026,0.621 0.134,3.539 -1.807,6.931 -4.902,8.617 C 17.911,1.544 17.3,1.726 16.954,1.947 16.788,2.053 16.668,2.249 16.513,2.368 14.952,3.559 12.954,3.739 11.321,2.552 11.075,2.374 10.848,2.085 10.633,1.947 10.287,1.726 9.676,1.544 9.266,1.321 5.971,-0.475 4.02,-4.163 4.418,-7.916 2.292,-6.951 0.696,-4.925 0.178,-2.65 0.125,-2.417 0.021,-1.994 0,-1.777 -0.043,-1.329 -0.042,-0.448 0,0"
       style="fill:#fde700;fill-opacity:1;fill-rule:nonzero;stroke:none"
       transform="matrix(1.3333333,0,0,-1.3333333,170.60867,278.4364)"
       clip-path="url(#clipPath108)" />
    <path
       id="path109"
       d="m 0,0 c -3.553,-1.654 -3.605,-6.723 0.028,-8.357 3.597,-1.619 7.381,1.713 6.299,5.488 -0.354,1.234 -1.32,2.316 -2.473,2.861 C 3.645,-0.138 3.472,-0.313 3.255,-0.439 2.172,-1.065 0.879,-0.873 0,0 m 2.181,-12.048 c -0.176,-0.007 -0.362,-0.007 -0.538,0 -8.234,0.331 -10.498,11.567 -2.983,15.017 0.283,0.13 0.783,0.243 1.009,0.391 0.144,0.094 0.344,0.412 0.518,0.56 0.988,0.835 2.462,0.835 3.45,0 C 3.811,3.772 4.011,3.454 4.155,3.36 4.381,3.212 4.881,3.099 5.164,2.969 c 7.515,-3.45 5.251,-14.686 -2.983,-15.017"
       style="fill:#fde700;fill-opacity:1;fill-rule:nonzero;stroke:none"
       transform="matrix(1.3333333,0,0,-1.3333333,186.45053,282.118)"
       clip-path="url(#clipPath110)" />
    <path
       id="path111"
       d="M 0,0 C 0.102,0.028 0.828,-0.286 1.047,-0.334 1.739,-0.484 2.5,-0.466 3.181,-0.276 3.392,-0.217 3.907,0.05 4.055,-0.018 4.506,-0.228 4.982,-1.42 5.025,-1.905 5.055,-2.249 4.993,-3.224 4.783,-3.494 4.755,-3.53 4.73,-3.551 4.681,-3.544 L 2.846,-3.329 C 1.643,-3.297 0.448,-3.371 -0.741,-3.524 -1.156,-2.63 -1.105,-1.548 -0.6,-0.697 -0.517,-0.556 -0.131,-0.036 0,0"
       style="fill:#fde700;fill-opacity:1;fill-rule:nonzero;stroke:none"
       transform="matrix(1.3333333,0,0,-1.3333333,186.32173,284.6936)"
       clip-path="url(#clipPath112)" />
    <path
       id="path113"
       d="m 0,0 c 4.073,1.217 7.33,2.856 9.706,4.28 4.365,-6.179 3.428,-14.304 -1.481,-18.607 -3.78,-3.313 -9.507,-4.004 -14.538,-1.786 1.337,-0.197 5.064,-0.56 8.726,1.617 1.58,0.939 2.676,2.07 3.389,2.96 -5.038,-2.171 -10.606,-1.36 -14.051,2.008 -2.921,2.856 -3.307,6.565 -3.381,7.751 C -8.654,-1.738 -4.597,-1.373 0,0 m 16.844,-29.373 6.77,10.211 c 0.227,0.343 0.731,0.343 0.959,0 l 6.769,-10.211 c 0.16,-0.242 0.116,-0.565 -0.104,-0.754 l -2.875,-2.476 c -0.241,-0.208 -0.606,-0.18 -0.813,0.063 l -3.019,3.539 c -0.23,0.269 -0.646,0.269 -0.875,0 l -3.02,-3.539 c -0.207,-0.243 -0.571,-0.271 -0.813,-0.063 l -2.875,2.476 c -0.219,0.189 -0.264,0.512 -0.104,0.754 M 38.481,4.28 C 40.857,2.856 44.114,1.217 48.186,0 c 4.597,-1.373 8.654,-1.738 11.63,-1.777 -0.074,-1.186 -0.46,-4.895 -3.381,-7.751 -3.444,-3.368 -9.012,-4.179 -14.051,-2.008 0.713,-0.89 1.809,-2.021 3.389,-2.96 3.663,-2.177 7.389,-1.814 8.726,-1.617 -5.031,-2.218 -10.758,-1.527 -14.537,1.786 -4.909,4.303 -5.847,12.428 -1.481,18.607 m -59.02,-26.76 16.881,-5.584 c 2.054,-0.68 3.471,-2.504 3.669,-4.603 l 3.586,-12.395 c 0.09,0.035 0.179,0.072 0.272,0.102 l 16.881,5.584 c 2.164,0.716 4.548,0.716 6.713,0 l 16.879,-5.584 c 0.086,-0.028 0.167,-0.062 0.25,-0.094 l 3.544,12.253 c 0.149,2.154 1.58,4.042 3.676,4.737 l 16.882,5.584 c 1.348,0.446 2.781,0.613 4.193,0.504 l 6.097,7.311 c 0.321,0.384 0.301,0.949 -0.047,1.31 L 65.606,0.475 68.57,43.947 c 0.025,0.373 -0.205,0.716 -0.56,0.833 L 24.522,59.166 c -0.279,0.092 -0.579,0.092 -0.857,0 L -19.824,44.78 c -0.354,-0.117 -0.585,-0.46 -0.559,-0.833 l 2.964,-43.472 -13.332,-13.83 c -0.347,-0.361 -0.368,-0.926 -0.047,-1.31 l 6.097,-7.31 c 1.402,0.105 2.824,-0.063 4.162,-0.505"
       style="fill:#fde700;fill-opacity:1;fill-rule:nonzero;stroke:none"
       transform="matrix(1.3333333,0,0,-1.3333333,156.85133,154.1168)"
       clip-path="url(#clipPath114)" />
    <path
       id="path115"
       d="M 0,0 C 0.871,0 1.578,0.706 1.578,1.578 1.578,2.449 0.871,3.156 0,3.156 -0.871,3.156 -1.578,2.449 -1.578,1.578 -1.578,0.706 -0.871,0 0,0"
       style="fill:#fde700;fill-opacity:1;fill-rule:nonzero;stroke:none"
       transform="matrix(1.3333333,0,0,-1.3333333,158.84827,162.86147)"
       clip-path="url(#clipPath116)" />
    <path
       id="path117"
       d="M 0,0 C 0.871,0 1.578,0.706 1.578,1.578 1.578,2.449 0.871,3.156 0,3.156 -0.871,3.156 -1.578,2.449 -1.578,1.578 -1.578,0.706 -0.871,0 0,0"
       style="fill:#fde700;fill-opacity:1;fill-rule:nonzero;stroke:none"
       transform="matrix(1.3333333,0,0,-1.3333333,219.13733,162.86147)"
       clip-path="url(#clipPath118)" />
    <path
       id="path119"
       d="m 0,0 v -12.177 c 0,-1.244 -1.077,-2.484 -2.208,-2.879 -1.028,-0.359 -4.852,-0.287 -6.093,-0.208 -2.026,0.129 -3.388,1.588 -3.336,3.627 h 2.576 c 0.056,0 0.36,0.212 0.406,0.294 0.141,0.248 0.106,0.695 -0.124,0.879 -0.039,0.032 -0.323,0.163 -0.346,0.163 h -2.512 v 1.717 h 2.512 c 0.036,0 0.347,0.168 0.392,0.212 0.19,0.19 0.208,0.6 0.078,0.83 -0.046,0.081 -0.35,0.293 -0.406,0.293 h -2.576 v 1.685 c 0,0.007 0.089,0.095 0.096,0.095 h 2.543 c 0.202,0 0.413,0.399 0.419,0.604 0.007,0.226 -0.185,0.668 -0.419,0.668 h -2.639 v 1.781 h 2.639 c 0.202,0 0.413,0.398 0.419,0.603 0.007,0.226 -0.185,0.668 -0.419,0.668 h -2.543 c -0.007,0 -0.096,0.089 -0.096,0.096 V 0 Z"
       style="fill:#192023;fill-opacity:1;fill-rule:nonzero;stroke:none"
       transform="matrix(1.3333333,0,0,-1.3333333,44.9776,188.4864)"
       clip-path="url(#clipPath120)" />
    <path
       id="path121"
       d="m 0,0 10.85,0.01 c 1.851,-0.259 1.911,-2.773 0.064,-3.102 H -0.009 C -1.829,-2.787 -1.806,-0.295 0,0"
       style="fill:#192023;fill-opacity:1;fill-rule:nonzero;stroke:none"
       transform="matrix(1.3333333,0,0,-1.3333333,29.950533,182.65827)"
       clip-path="url(#clipPath122)" />
    <path
       id="path123"
       d="m 0,0 h -9.22 c 0.173,0.863 0.61,1.687 1.175,2.354 0.227,0.267 1.116,1.005 1.208,1.208 0.155,0.342 -0.055,1.292 0.149,1.886 0.744,2.168 3.954,1.88 4.255,-0.346 0.051,-0.378 -0.065,-1.288 0.05,-1.54 0.092,-0.204 0.981,-0.94 1.207,-1.208 C -0.617,1.692 -0.173,0.854 0,0"
       style="fill:#192023;fill-opacity:1;fill-rule:nonzero;stroke:none"
       transform="matrix(1.3333333,0,0,-1.3333333,43.3668,180.94067)"
       clip-path="url(#clipPath124)" />
    <path
       id="path125"
       d="m 251.757,129.896 h 7.929 v 3.92 h -7.929 z m -3.05,20.262 c 0.077,0.276 0.492,0.763 0.788,0.763 h 3.177 v 1.451 c 0,0.228 0.183,0.412 0.356,0.535 h 5.387 c 0.172,-0.123 0.356,-0.307 0.356,-0.535 v -1.451 h 3.176 c 0.325,0 0.834,-0.588 0.79,-0.939 V 127.73 c -0.028,-0.425 -0.415,-0.845 -0.84,-0.889 -4.172,0.023 -8.354,-0.046 -12.519,0.035 -0.298,0.078 -0.547,0.412 -0.671,0.678 z"
       style="fill:#192023;fill-opacity:1;fill-rule:nonzero;stroke:none"
       transform="matrix(1.3333333,0,0,-1.3333333,0,377.95333)"
       clip-path="url(#clipPath126)" />
  </g>
</svg>
